<?xml version="1.0" encoding="UTF-8"?><svg id="uuid-e90dc823-f05a-4dec-883f-6356f736c1de" xmlns="http://www.w3.org/2000/svg" xmlns:xlink="http://www.w3.org/1999/xlink" viewBox="0 0 546.98 837"><defs><style>.uuid-d15112cd-d4d8-4aa4-945a-6477e38bcf1c{clip-path:url(#uuid-f4e059ca-9360-4a8b-b7ed-2511bb649e38);}.uuid-e49154b0-1b2f-4f7b-ad71-11350a6cdcb8{clip-path:url(#uuid-6944b172-cc3c-422e-a749-0e8dfdeb644a);}.uuid-56d8cec4-2b19-4f35-a497-1a0a3d1fab8e{fill:#ff6400;}.uuid-98725cb2-e4ea-4364-867a-9d786875152a{fill:#fff;}.uuid-54ba4e04-9821-40c4-9ddb-0eae09d5274b{clip-path:url(#uuid-e419ae03-827c-4123-964b-fa109de19fc1);}.uuid-8c26bd3a-fe8d-4b9a-a3c9-3e7aaf84e933{opacity:.25;}.uuid-fe050cca-aa3f-4ac1-8c7e-edd2a2fbb50c{opacity:.06;}.uuid-2fe15ecb-fea5-41eb-88a3-cec2ae767905{fill:#ff9e00;}.uuid-629facd8-6848-45dc-8251-d91c75894d85{fill:#000755;}.uuid-74af799b-ff24-4acd-a795-b12f71bef2fa{fill:#31357a;}</style><clipPath id="uuid-6944b172-cc3c-422e-a749-0e8dfdeb644a"><rect class="uuid-2fe15ecb-fea5-41eb-88a3-cec2ae767905" x="281.35" y="720" width="54" height="180" rx="27" ry="27" transform="translate(1118.35 501.65) rotate(90)"/></clipPath><clipPath id="uuid-e419ae03-827c-4123-964b-fa109de19fc1"><path class="uuid-629facd8-6848-45dc-8251-d91c75894d85" d="M6.98,436.5c-36,0,72-108,216-108,90,0,85.61,2.68,85.61-40.5v-144c0-72,144-72,144,0,0,45-.34,281.72-.03,296.78.11,5.5.46,69.12-44.71,111.39-51.1,47.82-146.5,52.38-220.87,1.33,0,0,0-117-180-117Z"/></clipPath><clipPath id="uuid-f4e059ca-9360-4a8b-b7ed-2511bb649e38"><rect class="uuid-56d8cec4-2b19-4f35-a497-1a0a3d1fab8e" x="461.48" y="153" width="54" height="117" rx="27" ry="27" transform="translate(699.98 -276.98) rotate(90)"/></clipPath></defs><path class="uuid-629facd8-6848-45dc-8251-d91c75894d85" d="M254.35,567h54c0,35.58,0,179.58,0,216h-54c0-35.92,0-179.92,0-216Z"/><path class="uuid-74af799b-ff24-4acd-a795-b12f71bef2fa" d="M290.35,748.23v-155.45c0-4.29,4.03-7.77,9-7.77h0c4.97,0,9,3.48,9,7.77v155.45c0,4.29-4.03,7.77-9,7.77h0c-4.97,0-9-3.48-9-7.77Z"/><rect class="uuid-2fe15ecb-fea5-41eb-88a3-cec2ae767905" x="281.35" y="720" width="54" height="180" rx="27" ry="27" transform="translate(1118.35 501.65) rotate(90)"/><g class="uuid-e49154b0-1b2f-4f7b-ad71-11350a6cdcb8"><g class="uuid-8c26bd3a-fe8d-4b9a-a3c9-3e7aaf84e933"><rect class="uuid-98725cb2-e4ea-4364-867a-9d786875152a" x="272.35" y="783" width="126" height="27" rx="13.5" ry="13.5"/></g></g><path class="uuid-629facd8-6848-45dc-8251-d91c75894d85" d="M6.98,436.5c-36,0,72-108,216-108,90,0,85.61,2.68,85.61-40.5v-144c0-72,144-72,144,0,0,45-.34,281.72-.03,296.78.11,5.5.46,69.12-44.71,111.39-51.1,47.82-146.5,52.38-220.87,1.33,0,0,0-117-180-117Z"/><g class="uuid-54ba4e04-9821-40c4-9ddb-0eae09d5274b"><ellipse class="uuid-8c26bd3a-fe8d-4b9a-a3c9-3e7aaf84e933" cx="279" cy="153" rx="63" ry="153"/></g><path class="uuid-74af799b-ff24-4acd-a795-b12f71bef2fa" d="M419.37,414c4.19,16.19-5.25,40.58-9.62,51.87-3.77,9.73-12.92,30.21-32.61,49.9-27.23,27.23-63.37,42.23-101.77,42.23H77.37c-1.8,0-3.16-.73-4.05-2.16-1.4-2.25-1.35-5.67-1.3-6.17,10.57-108.25,74.89-157.56,74.89-157.56,96.13-73.7,259.46-28.33,272.47,21.89Z"/><path class="uuid-629facd8-6848-45dc-8251-d91c75894d85" d="M275.37,549H81.13c5.45-52.84,24.33-90.57,39.3-112.99,16.42-24.6,31.82-36.66,31.97-36.77l-5.49-7.13h0s-64.32,49.31-74.89,157.56c-.05.5-.1,3.92,1.3,6.17.89,1.43,2.25,2.16,4.05,2.16h198s0-9,0-9Z"/><g class="uuid-fe050cca-aa3f-4ac1-8c7e-edd2a2fbb50c"><path class="uuid-98725cb2-e4ea-4364-867a-9d786875152a" d="M273.56,407.82c-.33-25.78,22.99-45.65,48.32-40.83,15.93,3.03,31.11,7.51,44.77,13.29,24.39,10.32,40.84,23.77,44,35.98,3.47,13.39-5.48,36.5-9.3,46.37-6.69,17.3-17.27,33.48-30.58,46.79-25.53,25.53-59.41,39.59-95.41,39.59l-1.81-141.18Z"/></g><circle class="uuid-98725cb2-e4ea-4364-867a-9d786875152a" cx="402.98" cy="148.5" r="27"/><ellipse class="uuid-629facd8-6848-45dc-8251-d91c75894d85" cx="393.98" cy="172.27" rx="22.5" ry="40.5" transform="translate(-6.42 329.04) rotate(-45)"/><rect class="uuid-56d8cec4-2b19-4f35-a497-1a0a3d1fab8e" x="461.48" y="153" width="54" height="117" rx="27" ry="27" transform="translate(699.98 -276.98) rotate(90)"/><g class="uuid-d15112cd-d4d8-4aa4-945a-6477e38bcf1c"><g class="uuid-8c26bd3a-fe8d-4b9a-a3c9-3e7aaf84e933"><rect class="uuid-98725cb2-e4ea-4364-867a-9d786875152a" x="465.08" y="184.5" width="81.9" height="27" rx="13.5" ry="13.5"/></g></g></svg>