<svg xmlns="http://www.w3.org/2000/svg" viewBox="0 0 576 576">
<style>
  .dark { display: none }
  @media (prefers-color-scheme: dark) {
    .light { display: none }
    .dark { display: inline }
  }
</style>
<g class="light">
  <defs>
    <clipPath id="clippath">
      <path id="foot-3" data-name="foot" d="M241.92,495.36c0-15.36,7.68-23.04,23.04-23.04,23.04,0,107.52,0,107.52,0,15.36,0,23.04,7.68,23.04,23.04s-7.68,23.04-23.04,23.04h-107.52c-15.36,0-23.04-7.68-23.04-23.04Z" fill="#ff9e00"/>
    </clipPath>
    <clipPath id="clippath-1">
      <rect id="beak-3" data-name="beak" x="449.28" y="103.68" width="46.08" height="92.16" rx="23.04" ry="23.04" transform="translate(622.08 -322.56) rotate(90)" fill="#ff6400"/>
    </clipPath>
  </defs>
  <g id="leg-back">
    <path d="M311.04,387.84h23.04c0,31.09,0,52.65,0,84.48h-23.04c0-31.39,0-52.95,0-84.48Z" fill="#0f1e3a"/>
  </g>
  <g id="leg-front">
    <path d="M272.64,387.84h46.08c0,31.09,0,52.65,0,84.48h-46.08c0-31.39,0-52.95,0-84.48Z" fill="#1a2d52"/>
  </g>
  <g id="foot">
    <path id="foot-2" data-name="foot" d="M241.92,495.36c0-15.36,7.68-23.04,23.04-23.04,23.04,0,107.52,0,107.52,0,15.36,0,23.04,7.68,23.04,23.04s-7.68,23.04-23.04,23.04h-107.52c-15.36,0-23.04-7.68-23.04-23.04Z" fill="#ff9e00"/>
    <g clip-path="url(#clippath)">
      <g id="foot-highlight" opacity=".12">
        <rect x="288" y="472.32" width="107.52" height="23.04" rx="11.52" ry="11.52" fill="#c8daeb"/>
      </g>
    </g>
  </g>
  <g id="wing-back">
    <path d="M244.89,401.1c31.8-1.88,161.3-1.95,158.31-97.25-1.92-61.33-71.97-89.87-164.09-86.98-113.23,3.55-180.33,128.59-178.4,190,.16,6.31-.05,0,61.36-1.92,30.7-.96,122.82-3.85,122.82-3.85Z" fill="#0f1e3a"/>
  </g>
  <path id="body" d="M57.6,303.36c0-34.07,30.72-92.16,184.32-92.16,92.16,0,92.16-21.08,92.16-92.16,0-46.08,30.72-61.44,61.44-61.44s61.44,15.36,61.44,61.44v61.44c0,62.01,15.36,61.44,15.36,122.88,0,92.73-107.52,122.88-153.6,122.88-76.8,0-138.24,0-138.24-38.4,0-23.04,0-30.72,0-53.76,0-20.35-30.72-30.72-61.44-30.72-61.44,0-61.44,7.68-61.44,0Z" fill="#1a2d52"/>
  <path id="breast-highlight" d="M445.21,355.72c-1.71-1.16-2.18-3.46-1.09-5.21,8.52-13.75,12.84-29.4,12.84-46.58,0-28.77-3.5-42.82-7.2-57.69-4.01-16.12-8.16-32.8-8.16-65.76v-57.6c0-2.12,1.72-3.84,3.84-3.84h0c2.12,0,3.84,1.72,3.84,3.84v57.6c0,32.02,4.03,48.23,7.93,63.9,3.82,15.35,7.43,29.84,7.43,59.55,0,18.65-4.71,35.67-14.02,50.66-1.15,1.85-3.62,2.36-5.42,1.13h0Z" fill="#c8daeb" opacity=".06"/>
  <g id="wing-front">
    <path d="M241.92,395.52c31.84-.88,161.28,3.18,161.28-92.16,0-61.36-69.12-92.16-161.28-92.16-113.29,0-184.32,122.88-184.32,184.32-.04,6.32,0,0,61.44,0h122.88Z" fill="#2d3f6a"/>
  </g>
  <g id="wing-highlight" opacity=".06">
    <path d="M169.05,238.65c23.06-12.74,47.58-19.2,72.87-19.2,45.84,0,84.43,7.65,111.59,22.13,27.88,14.86,42.01,35.81,42.01,62.27,0,35.17-246.92-53.9-226.47-65.2Z" fill="#c8daeb"/>
  </g>
  <g id="beak">
    <rect id="beak-2" data-name="beak" x="449.28" y="103.68" width="46.08" height="92.16" rx="23.04" ry="23.04" transform="translate(622.08 -322.56) rotate(90)" fill="#ff6400"/>
    <g clip-path="url(#clippath-1)">
      <g id="beak-highlight" opacity=".12">
        <path d="M518.4,149.76h-49.92c-6.36,0-11.52-5.16-11.52-11.52h0c0-6.36,5.16-11.52,11.52-11.52h49.92s0,23.04,0,23.04Z" fill="#c8daeb"/>
      </g>
    </g>
  </g>
  <path id="eye" d="M380.16,103.68h0c0-12.64,10.4-23.04,23.04-23.04s23.04,10.4,23.04,23.04c0,8.22-4.4,15.84-11.52,19.95h0c-7.13-12.35-20.3-19.95-34.56-19.95Z" fill="#fff"/>
  <g id="leg-highlight" opacity=".06">
    <path d="M311.04,472.32v-53.37c0-2.12,1.72-3.84,3.84-3.84h0c2.12,0,3.84,1.72,3.84,3.84v53.37s-7.68,0-7.68,0Z" fill="#c8daeb"/>
  </g>
  <g id="foot-highlight-2" data-name="foot-highlight" opacity=".12">
    <rect x="288" y="472.32" width="107.52" height="23.04" rx="11.52" ry="11.52" fill="#c8daeb"/>
  </g>
</g>
<g class="dark">
  <defs>
    <clipPath id="clippath">
      <path id="foot-3" data-name="foot" d="M241.92,495.36c0-15.36,7.68-23.04,23.04-23.04,23.04,0,107.52,0,107.52,0,15.36,0,23.04,7.68,23.04,23.04s-7.68,23.04-23.04,23.04h-107.52c-15.36,0-23.04-7.68-23.04-23.04Z" fill="#ffb733"/>
    </clipPath>
    <clipPath id="clippath-1">
      <rect id="beak-3" data-name="beak" x="449.28" y="103.68" width="46.08" height="92.16" rx="23.04" ry="23.04" transform="translate(622.08 -322.56) rotate(90)" fill="#ff8533"/>
    </clipPath>
  </defs>
  <g id="leg-back">
    <path d="M311.04,387.84h23.04c0,31.09,0,52.65,0,84.48h-23.04c0-31.39,0-52.95,0-84.48Z" fill="#3a4f6e"/>
  </g>
  <g id="leg-front">
    <path d="M272.64,387.84h46.08c0,31.09,0,52.65,0,84.48h-46.08c0-31.39,0-52.95,0-84.48Z" fill="#4d6589"/>
  </g>
  <g id="foot">
    <path id="foot-2" data-name="foot" d="M241.92,495.36c0-15.36,7.68-23.04,23.04-23.04,23.04,0,107.52,0,107.52,0,15.36,0,23.04,7.68,23.04,23.04s-7.68,23.04-23.04,23.04h-107.52c-15.36,0-23.04-7.68-23.04-23.04Z" fill="#ffb733"/>
    <g clip-path="url(#clippath)">
      <g id="foot-highlight" opacity=".12">
        <rect x="288" y="472.32" width="107.52" height="23.04" rx="11.52" ry="11.52" fill="#c8daeb"/>
      </g>
    </g>
  </g>
  <g id="wing-back">
    <path d="M244.89,401.1c31.8-1.88,161.3-1.95,158.31-97.25-1.92-61.33-71.97-89.87-164.09-86.98-113.23,3.55-180.33,128.59-178.4,190,.16,6.31-.05,0,61.36-1.92,30.7-.96,122.82-3.85,122.82-3.85Z" fill="#3a4f6e"/>
  </g>
  <path id="body" d="M57.6,303.36c0-34.07,30.72-92.16,184.32-92.16,92.16,0,92.16-21.08,92.16-92.16,0-46.08,30.72-61.44,61.44-61.44s61.44,15.36,61.44,61.44v61.44c0,62.01,15.36,61.44,15.36,122.88,0,92.73-107.52,122.88-153.6,122.88-76.8,0-138.24,0-138.24-38.4,0-23.04,0-30.72,0-53.76,0-20.35-30.72-30.72-61.44-30.72-61.44,0-61.44,7.68-61.44,0Z" fill="#4d6589"/>
  <path id="breast-highlight" d="M445.21,355.72c-1.71-1.16-2.18-3.46-1.09-5.21,8.52-13.75,12.84-29.4,12.84-46.58,0-28.77-3.5-42.82-7.2-57.69-4.01-16.12-8.16-32.8-8.16-65.76v-57.6c0-2.12,1.72-3.84,3.84-3.84h0c2.12,0,3.84,1.72,3.84,3.84v57.6c0,32.02,4.03,48.23,7.93,63.9,3.82,15.35,7.43,29.84,7.43,59.55,0,18.65-4.71,35.67-14.02,50.66-1.15,1.85-3.62,2.36-5.42,1.13h0Z" fill="#c8daeb" opacity=".06"/>
  <g id="wing-front">
    <path d="M241.92,395.52c31.84-.88,161.28,3.18,161.28-92.16,0-61.36-69.12-92.16-161.28-92.16-113.29,0-184.32,122.88-184.32,184.32-.04,6.32,0,0,61.44,0h122.88Z" fill="#6c82a3"/>
  </g>
  <g id="wing-highlight" opacity=".06">
    <path d="M169.05,238.65c23.06-12.74,47.58-19.2,72.87-19.2,45.84,0,84.43,7.65,111.59,22.13,27.88,14.86,42.01,35.81,42.01,62.27,0,35.17-246.92-53.9-226.47-65.2Z" fill="#c8daeb"/>
  </g>
  <g id="beak">
    <rect id="beak-2" data-name="beak" x="449.28" y="103.68" width="46.08" height="92.16" rx="23.04" ry="23.04" transform="translate(622.08 -322.56) rotate(90)" fill="#ff8533"/>
    <g clip-path="url(#clippath-1)">
      <g id="beak-highlight" opacity=".12">
        <path d="M518.4,149.76h-49.92c-6.36,0-11.52-5.16-11.52-11.52h0c0-6.36,5.16-11.52,11.52-11.52h49.92s0,23.04,0,23.04Z" fill="#c8daeb"/>
      </g>
    </g>
  </g>
  <path id="eye" d="M380.16,103.68h0c0-12.64,10.4-23.04,23.04-23.04s23.04,10.4,23.04,23.04c0,8.22-4.4,15.84-11.52,19.95h0c-7.13-12.35-20.3-19.95-34.56-19.95Z" fill="#fff"/>
  <g id="leg-highlight" opacity=".06">
    <path d="M311.04,472.32v-53.37c0-2.12,1.72-3.84,3.84-3.84h0c2.12,0,3.84,1.72,3.84,3.84v53.37s-7.68,0-7.68,0Z" fill="#c8daeb"/>
  </g>
  <g id="foot-highlight-2" data-name="foot-highlight" opacity=".12">
    <rect x="288" y="472.32" width="107.52" height="23.04" rx="11.52" ry="11.52" fill="#c8daeb"/>
  </g>
</g>
</svg>