<?xml version="1.0" encoding="UTF-8"?>
<svg id="favicon" xmlns="http://www.w3.org/2000/svg" width="512" height="512" xmlns:xlink="http://www.w3.org/1999/xlink" viewBox="0 0 512 512">
  <defs>
    <clipPath id="clippath">
      <path id="foot-3" data-name="foot" d="M218.85,410.78c0-12.38,6.19-18.57,18.57-18.57,18.57,0,86.68,0,86.68,0,12.38,0,18.57,6.19,18.57,18.57s-6.19,18.57-18.57,18.57h-86.68c-12.38,0-18.57-6.19-18.57-18.57Z" fill="#fff"/>
    </clipPath>
    <clipPath id="clippath-1">
      <path id="beak-3" data-name="beak" d="M404.59,119.79h0c10.25,0,18.57,8.32,18.57,18.57v42.22c0,7.45-6.05,13.5-13.5,13.5h-10.15c-7.45,0-13.5-6.05-13.5-13.5v-42.22c0-10.25,8.32-18.57,18.57-18.57Z" transform="translate(561.53 -247.66) rotate(90)" fill="#fff"/>
    </clipPath>
  </defs>
  <circle cx="256" cy="256" r="230.4" fill="#1a2d52"/>
  <g>
    <g id="foot">
      <path id="foot-2" data-name="foot" d="M218.85,410.78c0-12.38,6.19-18.57,18.57-18.57,18.57,0,86.68,0,86.68,0,12.38,0,18.57,6.19,18.57,18.57s-6.19,18.57-18.57,18.57h-86.68c-12.38,0-18.57-6.19-18.57-18.57Z" fill="#fff"/>
      <g clip-path="url(#clippath)">
        <g id="foot-highlight" opacity=".12">
          <rect x="256" y="392.21" width="86.68" height="18.57" rx="6.75" ry="6.75" fill="#fff"/>
        </g>
      </g>
    </g>
    <path id="body" d="M70.26,280.77c0-27.47,24.77-74.3,148.59-74.3,74.3,0,74.3-17,74.3-74.3,0-37.15,24.77-49.53,49.53-49.53s49.53,12.38,49.53,49.53v49.53c0,49.99,12.38,49.53,12.38,99.06,0,74.76-86.68,99.06-123.83,99.06-61.91,0-111.45,0-111.45-30.96,0-18.57,0-24.77,0-43.34,0-16.41-24.77-24.77-49.53-24.77-49.53,0-49.53,6.19-49.53,0Z" fill="#fff"/>
    <path id="breast-highlight" d="M382.73,322.98c-1.38-.94-1.75-2.79-.88-4.2,6.87-11.09,10.35-23.7,10.35-37.55,0-23.19-2.82-34.52-5.8-46.51-3.23-13-6.58-26.44-6.58-53.01v-46.44c0-1.71,1.39-3.09,3.09-3.09h0c1.71,0,3.09,1.39,3.09,3.09v46.44c0,25.81,3.25,38.88,6.4,51.52,3.08,12.37,5.99,24.06,5.99,48.01,0,15.03-3.8,28.76-11.3,40.84-.93,1.49-2.92,1.9-4.37.91h0Z" fill="#fff" opacity=".06"/>
    <g id="wing-front">
      <path d="M72.08,361.83c-.82,0-3.01,0-4.69-1.69-1.66-1.67-1.64-3.73-1.63-5.1,0-52.54,59.62-153.06,153.09-153.06,38.69,0,71.54,6.61,94.99,19.13,25.86,13.8,39.53,34.43,39.53,59.67,0,32.98-17.89,55.95-53.18,68.25-27.79,9.69-59.05,10.18-75.85,10.44-2.04.03-3.84.06-5.36.1h-99.19c-24.54,0-36.93,1.28-42.89,1.89-2.21.23-3.67.38-4.82.38Z" fill="#fff"/>
      <path d="M218.85,206.47c74.3,0,130.02,24.83,130.02,74.3,0,76.86-104.35,73.59-130.02,74.3h-99.06c-33.02,0-44.04,2.26-47.71,2.26-1.83,0-1.83-.57-1.82-2.26,0-49.53,57.26-148.59,148.59-148.59M218.85,197.47c-22.99,0-45.23,5.85-66.1,17.37-18.15,10.03-34.76,24.02-49.37,41.59-12.79,15.39-23.53,33.03-31.05,51.04-7.24,17.31-11.06,33.75-11.07,47.55-.01,1.73-.02,5.3,2.94,8.28,1.99,2,4.64,3.02,7.88,3.02,1.38,0,2.93-.16,5.28-.4,5.88-.6,18.13-1.86,42.43-1.86h99.31c1.51-.05,3.29-.07,5.31-.1,17.05-.26,48.79-.76,77.26-10.69,16.56-5.78,29.69-14.03,39.01-24.52,11.4-12.84,17.19-28.98,17.19-47.98,0-27-14.49-49.01-41.91-63.64-24.1-12.86-57.68-19.66-97.11-19.66h0Z" fill="#1a2d52"/>
    </g>
    <g id="wing-highlight" opacity=".06">
      <path d="M160.11,228.6c18.59-10.27,38.35-15.48,58.75-15.48,36.96,0,68.06,6.17,89.96,17.84,22.47,11.98,33.87,28.87,33.87,50.2,0,28.35-199.06-43.45-182.57-52.56Z" fill="#fff"/>
    </g>
    <g id="beak">
      <path id="beak-2" data-name="beak" d="M404.59,119.79h0c10.25,0,18.57,8.32,18.57,18.57v42.22c0,7.45-6.05,13.5-13.5,13.5h-10.15c-7.45,0-13.5-6.05-13.5-13.5v-42.22c0-10.25,8.32-18.57,18.57-18.57Z" transform="translate(561.53 -247.66) rotate(90)" fill="#fff"/>
      <g clip-path="url(#clippath-1)">
        <g id="beak-highlight" opacity=".12">
          <path d="M441.74,156.94h-40.24c-5.13,0-9.29-4.16-9.29-9.29h0c0-5.13,4.16-9.29,9.29-9.29h40.24s0,18.57,0,18.57Z" fill="#fff"/>
        </g>
      </g>
    </g>
    <path id="eye" d="M330.3,119.79h0c0-10.19,8.38-18.57,18.57-18.57s18.57,8.38,18.57,18.57c0,6.63-3.55,12.77-9.29,16.09h0c-5.75-9.95-16.37-16.09-27.86-16.09Z" fill="#1a2d52"/>
  </g>
</svg>