<?xml version="1.0" encoding="UTF-8"?>
<svg xmlns="http://www.w3.org/2000/svg" width="754" height="537.01" viewBox="0 0 754 537.01">
  <g style="isolation: isolate;">
    <g id="umbrella">
      <g id="umbrella-2" data-name="umbrella">
        <g id="canopy_front">
          <path d="M743.66,167.41s-77.77,17.94-106.77-32.53c0,0-84.39,36.24-144.53-20.71,0,0-77.92,62.12-164.91,0,0,0-52.23,66.18-146.74,18.3,0,0-42.9,38.65-110.56,19.24,0,0-15.44,39.09-59.8,31.84l121.02,118.29s170.76,11.65,178.27,14.24c7.52,2.59,155.72,5.18,172.9,5.18,17.18,0,106.32-11.65,120.28-19.41,13.96-7.77,79.47-55.65,79.47-55.65l34.37-10.35s27.15-33.3,27-68.42Z" style="fill: #cb9a2b;"/>
          <path d="M458.79,320.96c19.39-46.45,34.34-112.82,33.57-206.79,0,0-77.92,62.12-164.91,0,0,0,4.43,92.44,25.42,204.36,33.36,1.09,78.22,2,105.93,2.43Z" style="fill: #90307b;"/>
          <path d="M70.15,151.7c25.25,65.08,57.22,114.56,90.92,152.2,28.34,1.99,71.43,5.09,103.96,7.73-68.48-93.03-84.32-179.16-84.32-179.16,0,0-42.9,38.65-110.56,19.24Z" style="fill: #90307b;"/>
          <path d="M602.82,301.84c13.96-7.77,79.47-55.65,79.47-55.65l34.37-10.35s27.15-33.3,27-68.42c0,0-77.77,17.94-106.77-32.53,0,0-24.36,96.87-85.71,178.47,23.53-3.67,45.32-7.99,51.65-11.51Z" style="fill: #90307b;"/>
          <path d="M10.34,183.54l121.02,118.29s170.76,11.65,178.27,14.24c7.52,2.59,155.72,5.18,172.9,5.18,17.18,0,106.32-11.65,120.28-19.41,13.96-7.77,79.47-55.65,79.47-55.65l34.37-10.35s16.92-20.77,23.97-46.79c.54-11.97,1-19.68,1.39-21.24.43-.02,1.12-.06,1.63-.09,0-.01,0-.02,0-.03-.36.02-.88.04-1.62.08h0c-.1.02-.17.03-.27.05.05,0,.11,0,.19,0-19.9,11.98-73.79,54.19-171.47,8.19,0,0-77.54,42.42-193.86,8.75,0,0-108.56,33.24-180.93-8,0,0-87.1,54.92-181.7,8.64-1.97.32-1.93-.37-1.15-1.5-.83-.11-1.65-.2-2.49-.33Z" style="mix-blend-mode: multiply; opacity: .15;"/>
        </g>
        <g id="canopy_back">
          <path d="M570.48,207.91s-77.54,84.85-193.86,17.5c0,0-108.56,66.47-180.93-16.01,0,0-86.42,68.08-185.35-25.86,11.96,133.55,171.36,239.29,366.28,239.29,202.71,0,367.03-114.36,367.03-255.43,0,0-25.85,96.56-173.18,40.5Z" style="fill: #ffc609;"/>
          <path d="M376.62,422.84c173.99-1.74,193.86-214.93,193.86-214.93,0,0-77.54,84.85-193.86,17.5,0,0,10.34,119.3,0,197.43Z" style="fill: #bc499a;"/>
          <path d="M10.34,183.54c11.78,131.47,166.43,235.99,357.2,239.22-34.79-1.71-158.32-21.37-171.85-213.36,0,0-86.42,68.08-185.35-25.86Z" style="fill: #bc499a;"/>
        </g>
        <path d="M375.75,317.19c-92.71,0-179.71,12.13-254.95,33.35,66.1,44.74,156.33,72.3,255.82,72.3,99.23,0,189.25-27.42,255.32-71.95-75.52-21.44-162.97-33.7-256.19-33.7Z" style="fill: #fff; opacity: .1;"/>
        <path d="M376.02,386.58c-56.97,0-109.57,4.9-152.06,13.17,46.49,14.82,98.19,23.09,152.67,23.09,54.3,0,105.84-8.21,152.21-22.94-42.62-8.36-95.51-13.32-152.82-13.32Z" style="fill: #fff; opacity: .1;"/>
      </g>
    </g>
  </g>
</svg>