<?xml version="1.0" encoding="UTF-8"?>
<svg id="duck_light" data-name="duck light" xmlns="http://www.w3.org/2000/svg" width="576" height="576" xmlns:xlink="http://www.w3.org/1999/xlink" viewBox="0 0 576 576">
  <defs>
    <clipPath id="clippath">
      <path id="foot-3" data-name="foot" d="M234,549c0-18,9-27,27-27,27,0,126,0,126,0,18,0,27,9,27,27s-9,27-27,27h-126c-18,0-27-9-27-27Z" fill="#ff9e00"/>
    </clipPath>
    <clipPath id="clippath-1">
      <rect id="beak-3" data-name="beak" x="477" y="54" width="54" height="108" rx="27" ry="27" transform="translate(612 -396) rotate(90)" fill="#ff6400"/>
    </clipPath>
  </defs>
  <g id="leg-back">
    <path d="M315,423h27c0,36.44,0,61.7,0,99h-27c0-36.79,0-62.05,0-99Z" fill="#0f1e3a"/>
  </g>
  <g id="leg-front">
    <path d="M270,423h54c0,36.44,0,61.7,0,99h-54c0-36.79,0-62.05,0-99Z" fill="#1a2d52"/>
  </g>
  <g id="foot">
    <path id="foot-2" data-name="foot" d="M234,549c0-18,9-27,27-27,27,0,126,0,126,0,18,0,27,9,27,27s-9,27-27,27h-126c-18,0-27-9-27-27Z" fill="#ff9e00"/>
    <g clip-path="url(#clippath)">
      <g id="foot-highlight" opacity=".12">
        <rect x="288" y="522" width="126" height="27" rx="13.5" ry="13.5" fill="#c8daeb"/>
      </g>
    </g>
  </g>
  <g id="wing-back">
    <path d="M237.48,402.54c37.27-2.2,189.02-2.29,185.52-113.96-2.25-71.87-84.34-105.32-192.29-101.93-132.7,4.16-211.32,150.7-209.06,222.66.18,7.4-.06,0,71.91-2.25,35.98-1.13,143.93-4.51,143.93-4.51Z" fill="#0f1e3a"/>
  </g>
  <path id="body" d="M18,288c0-39.93,36-108,216-108,108,0,108-24.71,108-108C342,18,378,0,414,0s72,18,72,72v72c0,72.67,18,72,18,144,0,108.67-126,144-180,144-90,0-162,0-162-45,0-27,0-36,0-63,0-23.85-36-36-72-36-72,0-72,9-72,0Z" fill="#1a2d52"/>
  <path id="breast-highlight" d="M472.22,349.36c-2-1.36-2.55-4.05-1.27-6.11,9.99-16.12,15.05-34.46,15.05-54.59,0-33.71-4.1-50.18-8.44-67.61-4.7-18.9-9.56-38.43-9.56-77.06v-67.5c0-2.48,2.01-4.5,4.5-4.5h0c2.48,0,4.5,2.01,4.5,4.5v67.5c0,37.52,4.73,56.52,9.3,74.89,4.48,17.98,8.7,34.97,8.7,69.79,0,21.85-5.52,41.8-16.42,59.37-1.35,2.17-4.24,2.76-6.35,1.33h0Z" fill="#c8daeb" opacity=".06"/>
  <g id="wing-front">
    <path d="M234,396c37.32-1.03,189,3.73,189-108,0-71.91-81-108-189-108-132.76,0-216,144-216,216-.05,7.4,0,0,72,0h144Z" fill="#2d3f6a"/>
  </g>
  <g id="wing-highlight" opacity=".06">
    <path d="M148.61,212.17c27.02-14.93,55.75-22.5,85.4-22.5,53.72,0,98.94,8.97,130.77,25.93,32.67,17.41,49.23,41.97,49.23,72.98,0,41.21-289.36-63.17-265.4-76.41Z" fill="#c8daeb"/>
  </g>
  <g id="beak">
    <rect id="beak-2" data-name="beak" x="477" y="54" width="54" height="108" rx="27" ry="27" transform="translate(612 -396) rotate(90)" fill="#ff6400"/>
    <g clip-path="url(#clippath-1)">
      <g id="beak-highlight" opacity=".12">
        <path d="M558,108h-58.5c-7.46,0-13.5-6.04-13.5-13.5h0c0-7.46,6.04-13.5,13.5-13.5h58.5s0,27,0,27Z" fill="#c8daeb"/>
      </g>
    </g>
  </g>
  <path id="eye" d="M396,54h0c0-14.81,12.19-27,27-27s27,12.19,27,27c0,9.63-5.16,18.57-13.5,23.38h0c-8.35-14.47-23.79-23.38-40.5-23.38Z" fill="#fff"/>
  <g id="leg-highlight" opacity=".06">
    <path d="M315,522v-103.5c0-2.49,2.01-4.5,4.5-4.5h0c2.49,0,4.5,2.01,4.5,4.5v103.5s-9,0-9,0Z" fill="#c8daeb"/>
  </g>
  <g id="foot-highlight-2" data-name="foot-highlight" opacity=".12">
    <rect x="288" y="522" width="126" height="27" rx="13.5" ry="13.5" fill="#c8daeb"/>
  </g>
</svg>