<?xml version="1.0" encoding="UTF-8"?>
<svg id="umbrella" xmlns="http://www.w3.org/2000/svg" width="754" height="537.01" xmlns:xlink="http://www.w3.org/1999/xlink" viewBox="0 0 754 537.01">
  <defs>
    <clipPath id="clippath">
      <path id="foot-2" data-name="foot" d="M458.65,392.76c-12.73-12.73-12.73-25.46,0-38.18,19.09-19.09,89.09-89.1,89.09-89.1,12.73-12.73,25.46-12.73,38.18,0,12.73,12.73,12.73,25.46,0,38.18l-89.09,89.09c-12.73,12.73-25.46,12.73-38.18,0Z" fill="#ff9e00"/>
    </clipPath>
    <clipPath id="clippath-1">
      <path id="foot-4" data-name="foot" d="M330.79,510.01c0-18,9-27,27-27,27,0,126,0,126,0,18,0,27,9,27,27s-9,27-27,27h-126c-18,0-27-9-27-27Z" fill="#ff9e00"/>
    </clipPath>
    <clipPath id="clippath-2">
      <rect id="beak-3" data-name="beak" x="320.46" y="-7.91" width="54" height="108" rx="27" ry="27" transform="translate(134.36 -232.19) rotate(45)" fill="#ff6400"/>
    </clipPath>
  </defs>
  <g id="foot-back">
    <path id="foot" d="M458.65,392.76c-12.73-12.73-12.73-25.46,0-38.18,19.09-19.09,89.09-89.1,89.09-89.1,12.73-12.73,25.46-12.73,38.18,0,12.73,12.73,12.73,25.46,0,38.18l-89.09,89.09c-12.73,12.73-25.46,12.73-38.18,0Z" fill="#ff9e00"/>
    <g clip-path="url(#clippath)">
      <g id="foot-highlight" opacity=".12">
        <rect x="468.84" y="286.99" width="126" height="27" rx="13.5" ry="13.5" transform="translate(-56.7 464.08) rotate(-45)" fill="#c8daeb"/>
      </g>
    </g>
  </g>
  <g id="wing-back">
    <path d="M203.07,266.6c35.34,12.02,175.91,69.19,214.8-35.55,25.03-67.41-38.38-129.35-139.62-166.94C153.79,17.9,25.69,123.95.63,191.44c-2.62,6.92-.05-.02,67.44,25.04,33.75,12.53,134.99,50.12,134.99,50.12Z" fill="#0f1e3a"/>
  </g>
  <path id="body" d="M131.09,517.02c-28.23-28.23-50.91-101.82,76.37-229.1,76.37-76.37,58.9-93.84,0-152.73-38.18-38.18-25.46-76.37,0-101.82,25.46-25.46,63.64-38.18,101.82,0,16.81,16.81,5.56,5.56,50.91,50.91,51.39,51.39,63.64,38.18,114.55,89.1,76.84,76.84,12.73,190.92-25.45,229.1-63.64,63.64-114.55,114.55-146.37,82.73-19.09-19.09-25.45-25.46-44.55-44.55-16.86-16.86-50.91,0-76.37,25.46-50.91,50.91-44.55,57.28-50.91,50.91Z" fill="#1a2d52"/>
  <g id="leg-front">
    <g id="foot-front">
      <path id="foot-3" data-name="foot" d="M330.79,510.01c0-18,9-27,27-27,27,0,126,0,126,0,18,0,27,9,27,27s-9,27-27,27h-126c-18,0-27-9-27-27Z" fill="#ff9e00"/>
      <g clip-path="url(#clippath-1)">
        <g id="foot-highlight-2" data-name="foot-highlight" opacity=".12">
          <rect x="384.79" y="483.01" width="126" height="27" rx="13.5" ry="13.5" fill="#c8daeb"/>
        </g>
      </g>
    </g>
    <g id="pillar-front">
      <path d="M366.79,384.01h54c0,36.44,0,61.7,0,99-18,0-36,0-54,0,0-36.79,0-62.05,0-99Z" fill="#1a2d52"/>
    </g>
    <g id="leg-highlight" opacity=".06">
      <path d="M411.79,483.01v-103.5c0-2.49,2.01-4.5,4.5-4.5h0c2.49,0,4.5,2.01,4.5,4.5v103.5s-9,0-9,0Z" fill="#c8daeb"/>
    </g>
    <g id="shackle-down">
      <path id="shackle-dark" d="M348.79,474.01h90c0,4.97-4.03,9-9,9h-72c-4.97,0-9-4.03-9-9h0Z" fill="#9ab0be"/>
      <path id="shackle-light" d="M357.79,465.01h72c4.97,0,9,4.03,9,9h-90c0-4.97,4.03-9,9-9Z" fill="#b5c8d4"/>
    </g>
    <g id="shackle-up">
      <path id="shackle-dark-2" data-name="shackle-dark" d="M348.79,456.01h90c0,4.97-4.03,9-9,9h-72c-4.97,0-9-4.03-9-9h0Z" fill="#9ab0be"/>
      <path id="shackle-light-2" data-name="shackle-light" d="M357.79,447.01h72c4.97,0,9,4.03,9,9h-90c0-4.97,4.03-9,9-9Z" fill="#b5c8d4"/>
    </g>
  </g>
  <path id="breast-highlight" d="M495.66,239.23c-2.38.45-4.67-1.06-5.22-3.42-4.33-18.46-13.72-35.01-27.96-49.24-23.84-23.84-38.38-32.58-53.77-41.84-16.69-10.04-33.94-20.41-61.25-47.73l-47.73-47.73c-1.76-1.76-1.76-4.61,0-6.36h0c1.76-1.76,4.61-1.76,6.36,0l47.73,47.73c26.53,26.53,43.31,36.62,59.53,46.38,15.88,9.55,30.88,18.58,55.5,43.19,15.45,15.45,25.65,33.46,30.36,53.59.58,2.48-1.05,4.95-3.55,5.43h0Z" fill="#c8daeb" opacity=".06"/>
  <g id="wing-front">
    <g id="wing">
      <path d="M228.46,338.65c37.32-1.03,189,3.73,189-108,0-71.91-81-108-189-108-132.76,0-216,144-216,216-.05,7.4,0,0,72,0,36,0,144,0,144,0Z" fill="#2d3f6a"/>
    </g>
    <g id="wing-highlight" opacity=".06">
      <path d="M143.07,154.82c27.02-14.93,55.75-22.5,85.4-22.5,53.72,0,98.94,8.97,130.77,25.93,32.67,17.41,49.23,41.97,49.23,72.98,0,41.21-289.36-63.17-265.4-76.41Z" fill="#c8daeb"/>
    </g>
  </g>
  <g id="beak">
    <rect id="beak-2" data-name="beak" x="320.46" y="-7.91" width="54" height="108" rx="27" ry="27" transform="translate(134.36 -232.19) rotate(45)" fill="#ff6400"/>
    <g clip-path="url(#clippath-2)">
      <g id="beak-highlight" opacity=".12">
        <path d="M385.64,7.91l-41.37,41.37c-5.27,5.27-13.82,5.27-19.09,0h0c-5.27-5.27-5.27-13.82,0-19.09l41.37-41.37,19.09,19.09Z" fill="#c8daeb"/>
      </g>
    </g>
  </g>
  <path id="eye" d="M239.7,41.15h0c13.19-6.75,29.59-1.45,36.33,11.74,6.75,13.19,1.45,29.59-11.74,36.33-8.58,4.39-18.88,3.86-26.97-1.37h0c9.08-14.03,9.98-31.83,2.37-46.7Z" fill="#fff"/>
</svg>