<svg width="24" height="22" viewBox="0 0 24 22" fill="none" xmlns="http://www.w3.org/2000/svg">
<path d="M9.2875 20.5088C9.2875 19.735 9.6744 19.3481 10.4482 19.3481C11.6088 19.3481 15.8657 19.3481 15.8657 19.3481C16.6394 19.3481 17.0263 19.735 17.0263 20.5088C17.0263 21.2825 16.6394 21.6694 15.8657 21.6694H10.4482C9.6744 21.6694 9.2875 21.2825 9.2875 20.5088Z" fill="#F5F7FB"/>
<path d="M9.2875 20.5088C9.2875 19.735 9.6744 19.3481 10.4482 19.3481C11.6088 19.3481 15.8657 19.3481 15.8657 19.3481C16.6394 19.3481 17.0263 19.735 17.0263 20.5088C17.0263 21.2825 16.6394 21.6694 15.8657 21.6694H10.4482C9.6744 21.6694 9.2875 21.2825 9.2875 20.5088Z" fill="white"/>
<path d="M16.605 19.3481H12.0313C11.7983 19.3481 11.6094 19.537 11.6094 19.77V20.0869C11.6094 20.3199 11.7983 20.5088 12.0313 20.5088H16.605C16.838 20.5088 17.0269 20.3199 17.0269 20.0869V19.77C17.0269 19.537 16.838 19.3481 16.605 19.3481Z" fill="#F5F7FB"/>
<path d="M0.000699997 12.3831C0.000699997 10.6662 1.5488 7.7394 9.2875 7.7394C13.9313 7.7394 13.9313 6.6769 13.9313 3.0956C13.9313 0.7737 15.4794 0 17.0269 0C18.5744 0 20.1225 0.7737 20.1225 3.0956V6.1912C20.1225 9.3156 20.8963 9.2869 20.8963 12.3825C20.8963 17.055 15.4788 18.5737 13.1569 18.5737C9.2875 18.5737 6.1913 18.5737 6.1913 16.6387C6.1913 15.4781 6.1913 15.0906 6.1913 13.93C6.1913 12.9044 4.6432 12.3819 3.0957 12.3819C-7.15256e-07 12.3819 0 12.7688 0 12.3819L0.000699997 12.3831Z" fill="#F5F7FB"/>
<path d="M19.53 15.0213C19.4438 14.9625 19.4207 14.8469 19.475 14.7588C19.9044 14.0656 20.1219 13.2775 20.1219 12.4119C20.1219 10.9625 19.9457 10.2544 19.7594 9.505C19.5575 8.6925 19.3482 7.8525 19.3482 6.1919V3.2894C19.3482 3.1825 19.435 3.0962 19.5413 3.0962C19.6482 3.0962 19.7344 3.1831 19.7344 3.2894V6.1919C19.7344 7.805 19.9375 8.6219 20.1344 9.4119C20.3269 10.185 20.5088 10.9156 20.5088 12.4125C20.5088 13.3519 20.2713 14.21 19.8025 14.965C19.7444 15.0581 19.6206 15.0831 19.53 15.0213Z" fill="white"/>
<path d="M23.2182 4.6431C23.2182 5.2838 22.6982 5.8038 22.0575 5.8038H19.4188C18.9532 5.8038 18.575 5.4256 18.575 4.96V4.3256C18.575 3.86 18.9532 3.4819 19.4188 3.4819H22.0575C22.6982 3.4819 23.2182 4.0025 23.2182 4.6431Z" fill="#F5F7FB"/>
<path d="M23.2182 4.6431C23.2182 5.2838 22.6982 5.8038 22.0575 5.8038H19.4188C18.9532 5.8038 18.575 5.4256 18.575 4.96V4.3256C18.575 3.86 18.9532 3.4819 19.4188 3.4819H22.0575C22.6982 3.4819 23.2182 4.0025 23.2182 4.6431Z" fill="white"/>
<path d="M23.2182 4.6431L20.7032 4.6438C20.3825 4.6438 20.1225 4.3838 20.1225 4.0631C20.1225 3.7425 20.3825 3.4825 20.7032 3.4825H23.2182V4.6431Z" fill="#F5F7FB"/>
<path d="M16.2532 2.3219C16.2532 1.685 16.7769 1.1613 17.4138 1.1613C18.0507 1.1613 18.5744 1.685 18.5744 2.3219C18.5744 2.7363 18.3525 3.12 17.9938 3.3275C17.6344 2.7056 16.9714 2.3219 16.2532 2.3219Z" fill="#59626E"/>
</svg>
