<svg width="55" height="46" viewBox="0 0 55 46" fill="none" xmlns="http://www.w3.org/2000/svg">
<rect width="55" height="46" fill="rgba(34, 45, 61, .75)"/>
<path d="M25.5682 33.5088C25.5682 32.735 25.9551 32.3481 26.7289 32.3481C27.8895 32.3481 32.1464 32.3481 32.1464 32.3481C32.9201 32.3481 33.307 32.735 33.307 33.5088C33.307 34.2825 32.9201 34.6694 32.1464 34.6694H26.7289C25.9551 34.6694 25.5682 34.2825 25.5682 33.5088Z" fill="#F5F7FB"/>
<mask id="mask0_8_261" style="mask-type:luminance" maskUnits="userSpaceOnUse" x="25" y="32" width="9" height="3">
<path d="M25.5682 33.5088C25.5682 32.735 25.9551 32.3481 26.7289 32.3481C27.8895 32.3481 32.1464 32.3481 32.1464 32.3481C32.9201 32.3481 33.307 32.735 33.307 33.5088C33.307 34.2825 32.9201 34.6694 32.1464 34.6694H26.7289C25.9551 34.6694 25.5682 34.2825 25.5682 33.5088Z" fill="white"/>
</mask>
<g mask="url(#mask0_8_261)">
<g opacity="0.12">
<path d="M32.8857 32.3481H28.312C28.079 32.3481 27.8901 32.537 27.8901 32.77V33.0869C27.8901 33.3199 28.079 33.5088 28.312 33.5088H32.8857C33.1187 33.5088 33.3076 33.3199 33.3076 33.0869V32.77C33.3076 32.537 33.1187 32.3481 32.8857 32.3481Z" fill="#F5F7FB"/>
</g>
</g>
<path d="M16.2814 25.3831C16.2814 23.6662 17.8295 20.7394 25.5682 20.7394C30.212 20.7394 30.212 19.6769 30.212 16.0956C30.212 13.7737 31.7601 13 33.3076 13C34.8551 13 36.4032 13.7737 36.4032 16.0956V19.1912C36.4032 22.3156 37.177 22.2869 37.177 25.3825C37.177 30.055 31.7595 31.5737 29.4376 31.5737C25.5682 31.5737 22.472 31.5737 22.472 29.6387C22.472 28.4781 22.472 28.0906 22.472 26.93C22.472 25.9044 20.9239 25.3819 19.3764 25.3819C16.2807 25.3819 16.2807 25.7688 16.2807 25.3819L16.2814 25.3831Z" fill="#F5F7FB"/>
<path opacity="0.06" d="M35.8107 28.0213C35.7245 27.9625 35.7014 27.8469 35.7557 27.7588C36.1851 27.0656 36.4026 26.2775 36.4026 25.4119C36.4026 23.9625 36.2264 23.2544 36.0401 22.505C35.8382 21.6925 35.6289 20.8525 35.6289 19.1919V16.2894C35.6289 16.1825 35.7157 16.0962 35.822 16.0962C35.9289 16.0962 36.0151 16.1831 36.0151 16.2894V19.1919C36.0151 20.805 36.2182 21.6219 36.4151 22.4119C36.6076 23.185 36.7895 23.9156 36.7895 25.4125C36.7895 26.3519 36.552 27.21 36.0832 27.965C36.0251 28.0581 35.9007 28.0837 35.8101 28.0219L35.8107 28.0213Z" fill="white"/>
<path d="M39.4989 17.6431C39.4989 18.2838 38.9789 18.8038 38.3382 18.8038H35.6995C35.2339 18.8038 34.8557 18.4256 34.8557 17.96V17.3256C34.8557 16.86 35.2339 16.4819 35.6995 16.4819H38.3382C38.9789 16.4819 39.4989 17.0019 39.4989 17.6425V17.6431Z" fill="#F5F7FB"/>
<mask id="mask1_8_261" style="mask-type:luminance" maskUnits="userSpaceOnUse" x="34" y="16" width="6" height="3">
<path d="M39.4989 17.6431C39.4989 18.2838 38.9789 18.8038 38.3382 18.8038H35.6995C35.2339 18.8038 34.8557 18.4256 34.8557 17.96V17.3256C34.8557 16.86 35.2339 16.4819 35.6995 16.4819H38.3382C38.9789 16.4819 39.4989 17.0025 39.4989 17.6431Z" fill="white"/>
</mask>
<g mask="url(#mask1_8_261)">
<g opacity="0.12">
<path d="M39.4989 17.6438H36.9839C36.6632 17.6438 36.4032 17.3838 36.4032 17.0631C36.4032 16.7425 36.6632 16.4825 36.9839 16.4825H39.4989V17.6431V17.6438Z" fill="#F5F7FB"/>
</g>
</g>
<path d="M32.5339 15.3219C32.5339 14.685 33.0576 14.1613 33.6945 14.1613C34.3314 14.1613 34.8551 14.685 34.8551 15.3219C34.8551 15.7363 34.6332 16.12 34.2745 16.3275C33.9151 15.7056 33.2514 15.3219 32.5332 15.3219H32.5339Z" fill="#222D3D"/>
</svg>
