<svg xmlns="http://www.w3.org/2000/svg" viewBox="0 0 360 360"><defs><style>.cls-1{fill:#fff; }.cls-2,.cls-3{;fill:none;stroke:#fff;stroke-miterlimit:10;}.cls-3{stroke-dasharray:12 12;}</style></defs><g id="Layer_2" data-name="Layer 2"><g id="Layer_1-2" data-name="Layer 1"><line class="cls-1" x1="72" x2="72" y2="360"/><line class="cls-2" x1="72" x2="72" y2="6"/><line class="cls-3" x1="72" y1="18" x2="72" y2="348"/><line class="cls-2" x1="72" y1="354" x2="72" y2="360"/><line class="cls-1" x1="360" y1="72" y2="72"/><line class="cls-2" x1="360" y1="72" x2="354" y2="72"/><line class="cls-3" x1="342" y1="72" x2="12" y2="72"/><line class="cls-2" x1="6" y1="72" y2="72"/><line class="cls-1" x1="360" y1="144" y2="144"/><line class="cls-2" x1="360" y1="144" x2="354" y2="144"/><line class="cls-3" x1="342" y1="144" x2="12" y2="144"/><line class="cls-2" x1="6" y1="144" y2="144"/><line class="cls-1" x1="360" y1="216" y2="216"/><line class="cls-2" x1="360" y1="216" x2="354" y2="216"/><line class="cls-3" x1="342" y1="216" x2="12" y2="216"/><line class="cls-2" x1="6" y1="216" y2="216"/><line class="cls-1" x1="360" y1="288" y2="288"/><line class="cls-2" x1="360" y1="288" x2="354" y2="288"/><line class="cls-3" x1="342" y1="288" x2="12" y2="288"/><line class="cls-2" x1="6" y1="288" y2="288"/><line class="cls-1" x1="144" x2="144" y2="360"/><line class="cls-2" x1="144" x2="144" y2="6"/><line class="cls-3" x1="144" y1="18" x2="144" y2="348"/><line class="cls-2" x1="144" y1="354" x2="144" y2="360"/><line class="cls-1" x1="216" x2="216" y2="360"/><line class="cls-2" x1="216" x2="216" y2="6"/><line class="cls-3" x1="216" y1="18" x2="216" y2="348"/><line class="cls-2" x1="216" y1="354" x2="216" y2="360"/><line class="cls-1" x1="288" x2="288" y2="360"/><line class="cls-2" x1="288" x2="288" y2="6"/><line class="cls-3" x1="288" y1="18" x2="288" y2="348"/><line class="cls-2" x1="288" y1="354" x2="288" y2="360"/></g></g></svg>