<svg xmlns="http://www.w3.org/2000/svg" viewBox="0 0 180 180"><defs><style>.cls-1{fill:#fff;}</style></defs><g id="Layer_2" data-name="Layer 2"><g id="Layer_1-2" data-name="Layer 1"><path class="cls-1" d="M90,0a90,90,0,1,0,90,90A90,90,0,0,0,90,0Zm27.08,148.08A12,12,0,0,1,108,159.72a72.19,72.19,0,0,1-37.7-.46,12,12,0,0,1-8.7-11.53V112.1a20.06,20.06,0,0,1,7.85-16q8.16-6.2,20.75-6.2,14.46,0,20.67,6.92t6.22,21.37Zm41.58-57.51q-10.31-37.2-52.15-37.2-23.67,0-40.32,16.43a2.7,2.7,0,0,1-4.6-1.92V30.08a9.07,9.07,0,0,1,6.31-8.62A72,72,0,0,1,162,90v.12A1.7,1.7,0,0,1,158.66,90.57Z"/></g></g></svg>