<svg xmlns="http://www.w3.org/2000/svg" viewBox="0 0 504 369"><defs><style>.cls-1{fill:#e6e6e6;}.cls-2{opacity:0.5;}.cls-3{fill:none;}.cls-4{fill:#4d4d4d;}.cls-5{fill:#b3b3b3;}.cls-6{fill:#ccc;}</style></defs><g id="Layer_2" data-name="Layer 2"><g id="Layer_2-2" data-name="Layer 2"><rect class="cls-1" width="504" height="72" rx="36"/><rect class="cls-1" y="81" width="504" height="288" rx="36"/><path d="M33.08,27.21h2V40.28h7.45V42H33.08Z"/><path d="M50.13,35.5A1,1,0,0,0,51,35a1.58,1.58,0,0,0,.12-.69,1.49,1.49,0,0,0-.66-1.36,3.53,3.53,0,0,0-1.89-.42,2.42,2.42,0,0,0-2,.77,2.63,2.63,0,0,0-.43,1.27h-1.7a3.15,3.15,0,0,1,1.3-2.79A5.32,5.32,0,0,1,48.58,31a5.89,5.89,0,0,1,3.09.72A2.47,2.47,0,0,1,52.85,34v6.23a.77.77,0,0,0,.12.45.58.58,0,0,0,.49.17h.27l.33,0v1.34l-.65.16c-.15,0-.35,0-.61,0a1.5,1.5,0,0,1-1.36-.67,2.56,2.56,0,0,1-.31-1,4.67,4.67,0,0,1-1.6,1.26,4.87,4.87,0,0,1-2.29.54,3.42,3.42,0,0,1-2.46-.92,3,3,0,0,1-1-2.28,2.93,2.93,0,0,1,.94-2.33,4.46,4.46,0,0,1,2.46-1ZM46.3,40.41a2.16,2.16,0,0,0,1.36.45,4.23,4.23,0,0,0,1.86-.44A2.51,2.51,0,0,0,51,38V36.55a3.14,3.14,0,0,1-.86.35,6.45,6.45,0,0,1-1,.2l-1.1.15a4.07,4.07,0,0,0-1.48.41,1.6,1.6,0,0,0-.84,1.51A1.5,1.5,0,0,0,46.3,40.41Z"/><path d="M62,27.21H72.3V29H64v4.5H71.3V35.3H64V42H62Z"/><path d="M80,35.5a1,1,0,0,0,.84-.53,1.58,1.58,0,0,0,.12-.69,1.49,1.49,0,0,0-.66-1.36,3.53,3.53,0,0,0-1.89-.42,2.39,2.39,0,0,0-2,.77A2.63,2.63,0,0,0,76,34.54H74.27a3.12,3.12,0,0,1,1.29-2.79A5.34,5.34,0,0,1,78.45,31a5.93,5.93,0,0,1,3.1.72A2.47,2.47,0,0,1,82.73,34v6.23a.77.77,0,0,0,.12.45.55.55,0,0,0,.48.17h.28l.32,0v1.34c-.28.08-.5.13-.65.16s-.35,0-.6,0a1.49,1.49,0,0,1-1.36-.67,2.56,2.56,0,0,1-.32-1,4.72,4.72,0,0,1-1.59,1.26,4.92,4.92,0,0,1-2.29.54,3.39,3.39,0,0,1-2.46-.92,3,3,0,0,1-1-2.28,3,3,0,0,1,.94-2.33,4.52,4.52,0,0,1,2.47-1Zm-3.82,4.91a2.12,2.12,0,0,0,1.36.45,4.23,4.23,0,0,0,1.86-.44A2.5,2.5,0,0,0,80.91,38V36.55a3.06,3.06,0,0,1-.85.35,6.67,6.67,0,0,1-1,.2l-1.1.15a4.13,4.13,0,0,0-1.49.41,1.6,1.6,0,0,0-.84,1.51A1.48,1.48,0,0,0,76.18,40.41Z"/><path d="M85.56,27.16h1.76v5.38a4,4,0,0,1,1.43-1.18A4,4,0,0,1,90.56,31a4.27,4.27,0,0,1,3.29,1.38,5.92,5.92,0,0,1,1.26,4.1,7,7,0,0,1-1.25,4.26,4.05,4.05,0,0,1-3.46,1.7,3.5,3.5,0,0,1-2.08-.6,5.15,5.15,0,0,1-1.09-1.13V42H85.56Zm7,12.45a5.84,5.84,0,0,0,.73-3.09,5.15,5.15,0,0,0-.73-2.83,2.45,2.45,0,0,0-2.17-1.12,3,3,0,0,0-2.18.92,4.09,4.09,0,0,0-.94,3A6.55,6.55,0,0,0,87.61,39a2.65,2.65,0,0,0,2.68,1.79A2.45,2.45,0,0,0,92.51,39.61Z"/><path d="M97.26,31.23H99V33.1a4.2,4.2,0,0,1,1-1.33,2.72,2.72,0,0,1,1.91-.78h.17l.42,0V33a1.77,1.77,0,0,0-.3,0h-.3a2.59,2.59,0,0,0-2.11.88,3.09,3.09,0,0,0-.73,2V42H97.26Z"/><path d="M104.09,27.21h1.85v2.06h-1.85Zm0,4.07h1.85V42h-1.85Z"/><path d="M114.79,31.66a4.08,4.08,0,0,1,1,1.07v-1.5h1.72V46.35h-1.82V40.8A3.25,3.25,0,0,1,114.4,42a4.41,4.41,0,0,1-5.09-.93A5.56,5.56,0,0,1,108,36.91a6.81,6.81,0,0,1,1.28-4.26,4,4,0,0,1,3.3-1.66A3.73,3.73,0,0,1,114.79,31.66Zm-4.55,7.47a2.5,2.5,0,0,0,2.49,1.69A2.61,2.61,0,0,0,115.34,39a6.79,6.79,0,0,0,.39-2.5,5.53,5.53,0,0,0-.43-2.34,2.62,2.62,0,0,0-2.59-1.61,2.52,2.52,0,0,0-2,1,4.93,4.93,0,0,0-.84,3.16A6.17,6.17,0,0,0,110.24,39.13Z"/><path d="M122,31.23v7.18a3.09,3.09,0,0,0,.26,1.35,1.76,1.76,0,0,0,1.76,1,2.49,2.49,0,0,0,2.52-1.7,6.9,6.9,0,0,0,.36-2.49V31.23h1.82V42H127l0-1.59a3.65,3.65,0,0,1-.86,1,3.79,3.79,0,0,1-2.48.85,3.18,3.18,0,0,1-3.09-1.55,4.76,4.76,0,0,1-.44-2.21V31.23Z"/><path class="cls-2" d="M138.37,31.53a4,4,0,0,1,1.63,1.4,4.82,4.82,0,0,1,.72,1.9,12.43,12.43,0,0,1,.16,2.39H133a4.62,4.62,0,0,0,.77,2.64,2.56,2.56,0,0,0,2.23,1,2.86,2.86,0,0,0,2.26-.94,3.45,3.45,0,0,0,.67-1.27h1.78a3.56,3.56,0,0,1-.47,1.33,4.35,4.35,0,0,1-.89,1.19,4.06,4.06,0,0,1-2,1.09,6,6,0,0,1-1.47.17,4.5,4.5,0,0,1-3.4-1.47,5.74,5.74,0,0,1-1.4-4.12,6.25,6.25,0,0,1,1.41-4.23A4.62,4.62,0,0,1,136.15,31,4.91,4.91,0,0,1,138.37,31.53Zm.65,4.24a5.07,5.07,0,0,0-.51-1.89A2.63,2.63,0,0,0,136,32.57a2.72,2.72,0,0,0-2.08.91,3.39,3.39,0,0,0-.89,2.29Z"/><path class="cls-2" d="M154.87,31.56a5,5,0,0,1,1.1,1.06V27.16h1.75V42h-1.64v-1.5a3.81,3.81,0,0,1-1.5,1.44,4.25,4.25,0,0,1-2,.45,4,4,0,0,1-3.12-1.52,6,6,0,0,1-1.32-4,6.93,6.93,0,0,1,1.21-4.09A3.93,3.93,0,0,1,152.8,31,3.79,3.79,0,0,1,154.87,31.56Zm-4.05,8.11a2.55,2.55,0,0,0,2.35,1.17,2.48,2.48,0,0,0,2.06-1.08,5.18,5.18,0,0,0,.81-3.12,4.63,4.63,0,0,0-.83-3,2.61,2.61,0,0,0-2.06-1,2.73,2.73,0,0,0-2.22,1.05,4.86,4.86,0,0,0-.85,3.09A5.37,5.37,0,0,0,150.82,39.67Z"/><path class="cls-2" d="M167.11,31.53a4.06,4.06,0,0,1,1.64,1.4,4.82,4.82,0,0,1,.72,1.9,12.43,12.43,0,0,1,.16,2.39h-7.87a4.62,4.62,0,0,0,.78,2.64,2.55,2.55,0,0,0,2.23,1,2.86,2.86,0,0,0,2.25-.94,3.17,3.17,0,0,0,.67-1.27h1.79A4,4,0,0,1,169,40a4.56,4.56,0,0,1-.89,1.19,4.13,4.13,0,0,1-2,1.09,5.94,5.94,0,0,1-1.47.17,4.5,4.5,0,0,1-3.4-1.47,5.74,5.74,0,0,1-1.39-4.12,6.24,6.24,0,0,1,1.4-4.23A4.63,4.63,0,0,1,164.89,31,4.88,4.88,0,0,1,167.11,31.53Zm.65,4.24a4.72,4.72,0,0,0-.51-1.89,2.62,2.62,0,0,0-2.47-1.31,2.7,2.7,0,0,0-2.08.91,3.4,3.4,0,0,0-.9,2.29Z"/><path class="cls-2" d="M177.52,27.16h1.77v5.38a4,4,0,0,1,1.43-1.18,3.93,3.93,0,0,1,1.8-.41,4.24,4.24,0,0,1,3.29,1.38,5.87,5.87,0,0,1,1.27,4.1,7,7,0,0,1-1.25,4.26,4.05,4.05,0,0,1-3.46,1.7,3.5,3.5,0,0,1-2.08-.6,5.15,5.15,0,0,1-1.09-1.13V42h-1.68Zm6.95,12.45a5.74,5.74,0,0,0,.74-3.09,5.07,5.07,0,0,0-.74-2.83,2.43,2.43,0,0,0-2.16-1.12,3,3,0,0,0-2.18.92,4.09,4.09,0,0,0-.94,3,6.55,6.55,0,0,0,.39,2.47,2.64,2.64,0,0,0,2.68,1.79A2.43,2.43,0,0,0,184.47,39.61Z"/><path class="cls-2" d="M197,32.31a5.43,5.43,0,0,1,1.43,4.09,7.07,7.07,0,0,1-1.26,4.32,4.55,4.55,0,0,1-3.92,1.71,4.43,4.43,0,0,1-3.52-1.51,6,6,0,0,1-1.3-4.05,6.51,6.51,0,0,1,1.37-4.34,4.59,4.59,0,0,1,3.69-1.61A4.82,4.82,0,0,1,197,32.31Zm-1.13,7.19a6.81,6.81,0,0,0,.67-3,5.51,5.51,0,0,0-.48-2.47,2.71,2.71,0,0,0-2.62-1.49,2.55,2.55,0,0,0-2.39,1.27,5.94,5.94,0,0,0-.75,3.07,5.13,5.13,0,0,0,.75,2.87,2.61,2.61,0,0,0,2.37,1.15A2.47,2.47,0,0,0,195.88,39.5Z"/><path class="cls-2" d="M200.68,31.23h1.72v1.53A4.93,4.93,0,0,1,204,31.4a4.28,4.28,0,0,1,1.91-.41,3.15,3.15,0,0,1,3.11,1.6,5.84,5.84,0,0,1,.44,2.52V42h-1.85V35.23a3.81,3.81,0,0,0-.29-1.6,1.78,1.78,0,0,0-1.76-1,3.87,3.87,0,0,0-1.06.13,2.78,2.78,0,0,0-1.31.89,2.73,2.73,0,0,0-.59,1.11,7.43,7.43,0,0,0-.14,1.63V42h-1.81Z"/><path class="cls-2" d="M212,27.16h1.77v5.38a4,4,0,0,1,1.43-1.18A3.93,3.93,0,0,1,217,31a4.24,4.24,0,0,1,3.29,1.38,5.92,5.92,0,0,1,1.27,4.1,7,7,0,0,1-1.25,4.26,4.05,4.05,0,0,1-3.46,1.7,3.55,3.55,0,0,1-2.09-.6,5.14,5.14,0,0,1-1.08-1.13V42H212ZM219,39.61a5.74,5.74,0,0,0,.74-3.09,5.07,5.07,0,0,0-.74-2.83,2.43,2.43,0,0,0-2.16-1.12,3,3,0,0,0-2.18.92,4.09,4.09,0,0,0-.94,3,6.78,6.78,0,0,0,.38,2.47,2.66,2.66,0,0,0,2.69,1.79A2.43,2.43,0,0,0,219,39.61Z"/><path class="cls-2" d="M231.51,32.31a5.43,5.43,0,0,1,1.43,4.09,7.07,7.07,0,0,1-1.26,4.32,4.55,4.55,0,0,1-3.92,1.71,4.43,4.43,0,0,1-3.52-1.51,6,6,0,0,1-1.3-4.05,6.51,6.51,0,0,1,1.37-4.34A4.59,4.59,0,0,1,228,30.92,4.85,4.85,0,0,1,231.51,32.31Zm-1.13,7.19a7,7,0,0,0,.67-3,5.51,5.51,0,0,0-.48-2.47A2.71,2.71,0,0,0,228,32.5a2.55,2.55,0,0,0-2.39,1.27,5.94,5.94,0,0,0-.75,3.07,5.13,5.13,0,0,0,.75,2.87,2.61,2.61,0,0,0,2.37,1.15A2.47,2.47,0,0,0,230.38,39.5Z"/><path class="cls-2" d="M235.18,31.23h1.72v1.53a4.93,4.93,0,0,1,1.63-1.36,4.28,4.28,0,0,1,1.91-.41,3.15,3.15,0,0,1,3.11,1.6,5.84,5.84,0,0,1,.44,2.52V42h-1.85V35.23a3.81,3.81,0,0,0-.29-1.6,1.78,1.78,0,0,0-1.76-1,3.87,3.87,0,0,0-1.06.13,2.78,2.78,0,0,0-1.31.89,2.73,2.73,0,0,0-.59,1.11,7.43,7.43,0,0,0-.14,1.63V42h-1.81Z"/><path class="cls-2" d="M247.76,38.65a2.49,2.49,0,0,0,.46,1.39,2.94,2.94,0,0,0,2.43.88,3.54,3.54,0,0,0,1.81-.44,1.44,1.44,0,0,0,.79-1.36,1.14,1.14,0,0,0-.63-1,7.62,7.62,0,0,0-1.58-.52l-1.47-.36a7.47,7.47,0,0,1-2.07-.77,2.29,2.29,0,0,1-1.19-2,3.11,3.11,0,0,1,1.12-2.48,4.48,4.48,0,0,1,3-.95A4.2,4.2,0,0,1,254,32.38a3.15,3.15,0,0,1,.66,2H253a2.15,2.15,0,0,0-.45-1.12,2.91,2.91,0,0,0-2.22-.71,2.74,2.74,0,0,0-1.6.39,1.24,1.24,0,0,0-.54,1,1.28,1.28,0,0,0,.71,1.13,4.75,4.75,0,0,0,1.22.44l1.22.29a9.83,9.83,0,0,1,2.67.92A2.44,2.44,0,0,1,255,38.91a3.31,3.31,0,0,1-1.1,2.5,4.77,4.77,0,0,1-3.38,1.05,4.57,4.57,0,0,1-3.46-1.1A4.11,4.11,0,0,1,246,38.65Z"/><path d="M33.08,115.62h3.1v12.2h7.44v2.68H33.08Z"/><path d="M49.83,123.81a4.6,4.6,0,0,0,1.15-.26.84.84,0,0,0,.62-.81,1,1,0,0,0-.47-.94,3.06,3.06,0,0,0-1.4-.26,1.81,1.81,0,0,0-1.46.51,1.94,1.94,0,0,0-.41,1H45.08a4.2,4.2,0,0,1,.81-2.37c.76-1,2.08-1.46,3.94-1.46a7,7,0,0,1,3.22.72,2.75,2.75,0,0,1,1.41,2.71v5c0,.35,0,.78,0,1.28a1.63,1.63,0,0,0,.17.76,1.07,1.07,0,0,0,.43.34v.42H52a3.43,3.43,0,0,1-.19-.63c0-.19-.06-.41-.08-.66a6.19,6.19,0,0,1-1.38,1.1,4.14,4.14,0,0,1-2.11.53,3.63,3.63,0,0,1-2.48-.85,3,3,0,0,1-1-2.42,3.14,3.14,0,0,1,1.57-2.94,7.08,7.08,0,0,1,2.55-.7Zm1.76,1.34a3.25,3.25,0,0,1-.56.28,4.52,4.52,0,0,1-.77.19l-.65.12a4.22,4.22,0,0,0-1.33.4,1.32,1.32,0,0,0-.68,1.22,1.25,1.25,0,0,0,.42,1.06,1.57,1.57,0,0,0,1,.33,3,3,0,0,0,1.74-.54,2.32,2.32,0,0,0,.82-2Z"/><path d="M63,115.64H73.56v2.61H66v3.43h6.59v2.58H66v6.24H63Z"/><path d="M79.71,123.81a4.71,4.71,0,0,0,1.15-.26.86.86,0,0,0,.62-.81,1,1,0,0,0-.48-.94,3,3,0,0,0-1.4-.26,1.83,1.83,0,0,0-1.46.51,2.13,2.13,0,0,0-.41,1H75a4.2,4.2,0,0,1,.81-2.37c.76-1,2.07-1.46,3.93-1.46a7,7,0,0,1,3.23.72,2.76,2.76,0,0,1,1.4,2.71v5c0,.35,0,.78,0,1.28a1.6,1.6,0,0,0,.18.76,1,1,0,0,0,.42.34v.42H81.82a2.75,2.75,0,0,1-.18-.63,5.42,5.42,0,0,1-.08-.66,6.19,6.19,0,0,1-1.38,1.1,4.17,4.17,0,0,1-2.12.53,3.63,3.63,0,0,1-2.48-.85,3,3,0,0,1-1-2.42,3.15,3.15,0,0,1,1.58-2.94,7,7,0,0,1,2.54-.7Zm1.76,1.34a3.66,3.66,0,0,1-.56.28,5.07,5.07,0,0,1-.77.19l-.66.12a4.24,4.24,0,0,0-1.32.4,1.32,1.32,0,0,0-.68,1.22,1.27,1.27,0,0,0,.41,1.06,1.59,1.59,0,0,0,1,.33,3,3,0,0,0,1.74-.54,2.32,2.32,0,0,0,.83-2Z"/><path d="M96.25,120.82a6.34,6.34,0,0,1,1.23,4,7.1,7.1,0,0,1-1.22,4.25,4,4,0,0,1-3.4,1.68,4,4,0,0,1-2.2-.54,4.54,4.54,0,0,1-1.08-1.13v1.38H86.75V115.64h2.87v5.29a4.3,4.3,0,0,1,1.21-1.17,3.62,3.62,0,0,1,2-.51A4.12,4.12,0,0,1,96.25,120.82Zm-2.41,6.7a4.11,4.11,0,0,0,.62-2.36,5.38,5.38,0,0,0-.3-1.94A2.13,2.13,0,0,0,92,121.77a2.16,2.16,0,0,0-2.17,1.42,5.36,5.36,0,0,0-.31,2,4,4,0,0,0,.64,2.34,2.16,2.16,0,0,0,1.92.93A2,2,0,0,0,93.84,127.52Z"/><path d="M105.59,119.24h.25v3l-.49,0H105a2.39,2.39,0,0,0-2.33,1.13,4.47,4.47,0,0,0-.33,2v5.26h-2.9v-11h2.74v1.91a6.25,6.25,0,0,1,1.17-1.5,3.14,3.14,0,0,1,2.1-.68Z"/><path d="M110.48,118.18h-2.91v-2.65h2.91Zm-2.91,1.32h2.91v11h-2.91Z"/><path d="M119.43,119.88a4.49,4.49,0,0,1,1,1.26v-1.63h2.78v15.35h-2.85v-5.72a3.09,3.09,0,0,1-1.11,1.18,3.77,3.77,0,0,1-2.13.52,4.19,4.19,0,0,1-3.25-1.52,5.93,5.93,0,0,1-1.35-4.07,6.72,6.72,0,0,1,1.35-4.4,4.15,4.15,0,0,1,3.33-1.65A3.48,3.48,0,0,1,119.43,119.88Zm.61,7.23a4.9,4.9,0,0,0,.41-2.13,4.71,4.71,0,0,0-.34-1.81,2.19,2.19,0,0,0-2.17-1.43,2.11,2.11,0,0,0-1.75.84,4,4,0,0,0-.67,2.54,4.71,4.71,0,0,0,.31,1.87,2.08,2.08,0,0,0,2.1,1.39A2.16,2.16,0,0,0,120,127.11Z"/><path d="M128.77,119.5v6.63a3.43,3.43,0,0,0,.22,1.41,1.53,1.53,0,0,0,1.54.84,2,2,0,0,0,2-1.19,4.48,4.48,0,0,0,.28-1.71v-6h2.92v11h-2.8V129a2,2,0,0,0-.2.3,2.05,2.05,0,0,1-.39.44,3.92,3.92,0,0,1-1.3.83,4.37,4.37,0,0,1-1.47.22,3.3,3.3,0,0,1-3.29-1.75,6.86,6.86,0,0,1-.47-2.86V119.5Z"/><path d="M145.7,119.72a4.4,4.4,0,0,1,1.91,1.63,5.33,5.33,0,0,1,.87,2.27,14.12,14.12,0,0,1,.1,2.18h-8a2.67,2.67,0,0,0,1.15,2.33,3,3,0,0,0,1.59.41,2.49,2.49,0,0,0,1.6-.5,2.6,2.6,0,0,0,.59-.76h2.94a3.64,3.64,0,0,1-1.07,2,5.36,5.36,0,0,1-4.14,1.6,6,6,0,0,1-3.88-1.35q-1.68-1.35-1.68-4.41a6,6,0,0,1,1.52-4.38,5.3,5.3,0,0,1,3.94-1.53A6.13,6.13,0,0,1,145.7,119.72Zm-4.3,2.48a3,3,0,0,0-.77,1.71h5a2.37,2.37,0,0,0-.77-1.74,2.49,2.49,0,0,0-1.7-.6A2.29,2.29,0,0,0,141.4,122.2Z"/><path d="M161.61,119.67a3.43,3.43,0,0,1,1.26,1.22v-5.25h2.92V130.5H163V129a4.07,4.07,0,0,1-1.41,1.42,3.89,3.89,0,0,1-2,.44,4.09,4.09,0,0,1-3.24-1.56,6,6,0,0,1-1.32-4,6.84,6.84,0,0,1,1.3-4.43,4.21,4.21,0,0,1,3.47-1.62A3.57,3.57,0,0,1,161.61,119.67Zm.71,7.84a4,4,0,0,0,.64-2.35,3.61,3.61,0,0,0-1-2.89,2.21,2.21,0,0,0-1.46-.52,2,2,0,0,0-1.85,1,4.48,4.48,0,0,0-.59,2.37,4.41,4.41,0,0,0,.6,2.44,2,2,0,0,0,1.82.91A2.11,2.11,0,0,0,162.32,127.51Z"/><path d="M175.58,119.72a4.38,4.38,0,0,1,1.9,1.63,5.48,5.48,0,0,1,.88,2.27,13.16,13.16,0,0,1,.09,2.18h-8a2.65,2.65,0,0,0,1.15,2.33,3,3,0,0,0,1.58.41,2.21,2.21,0,0,0,2.19-1.26h2.94a3.62,3.62,0,0,1-1.06,2,5.36,5.36,0,0,1-4.14,1.6,6,6,0,0,1-3.88-1.35q-1.68-1.35-1.68-4.41a5.92,5.92,0,0,1,1.52-4.38A5.29,5.29,0,0,1,173,119.2,6.18,6.18,0,0,1,175.58,119.72Zm-4.31,2.48a3,3,0,0,0-.76,1.71h5a2.41,2.41,0,0,0-.77-1.74,2.51,2.51,0,0,0-1.71-.6A2.29,2.29,0,0,0,171.27,122.2Z"/><path d="M197,117.2a3.77,3.77,0,0,1,.69,2.27,3.35,3.35,0,0,1-.69,2.2,3.67,3.67,0,0,1-1.14.84,3.32,3.32,0,0,1,1.72,1.32,3.87,3.87,0,0,1,.58,2.18,4.36,4.36,0,0,1-.66,2.37,4.2,4.2,0,0,1-1,1.17,4.27,4.27,0,0,1-1.69.75,10.55,10.55,0,0,1-2.1.2h-6.7V115.62h7.19A4.52,4.52,0,0,1,197,117.2Zm-8.08,1v3.28h3.62a3,3,0,0,0,1.57-.36,1.41,1.41,0,0,0,.61-1.31,1.35,1.35,0,0,0-.8-1.38,5.78,5.78,0,0,0-1.76-.23Zm0,5.75v4h3.62a3.41,3.41,0,0,0,1.5-.27,1.86,1.86,0,0,0,1-1.86,1.59,1.59,0,0,0-.95-1.59,3.62,3.62,0,0,0-1.48-.25Z"/><path d="M209.76,129.15a6.06,6.06,0,0,1-8.46,0,6.83,6.83,0,0,1,0-8.26,6,6,0,0,1,8.46,0,6.79,6.79,0,0,1,0,8.26Zm-2.3-1.59a5.1,5.1,0,0,0,0-5.09,2.54,2.54,0,0,0-3.88,0,5.1,5.1,0,0,0,0,5.09,2.54,2.54,0,0,0,3.88,0Z"/><path d="M222.09,120.13a3.63,3.63,0,0,1,1.08,3v7.41h-2.95v-6.69a3,3,0,0,0-.23-1.34,1.62,1.62,0,0,0-1.6-.85,2,2,0,0,0-2,1.25,4.37,4.37,0,0,0-.28,1.67v6h-2.87v-11H216v1.61a4.8,4.8,0,0,1,1-1.22,3.57,3.57,0,0,1,2.24-.67A4.2,4.2,0,0,1,222.09,120.13Z"/><path d="M235.24,120.82a6.28,6.28,0,0,1,1.24,4,7.1,7.1,0,0,1-1.22,4.25,4.44,4.44,0,0,1-5.6,1.14,4.54,4.54,0,0,1-1.08-1.13v1.38h-2.83V115.64h2.87v5.29a4.3,4.3,0,0,1,1.21-1.17,3.59,3.59,0,0,1,2-.51A4.09,4.09,0,0,1,235.24,120.82Zm-2.4,6.7a4.11,4.11,0,0,0,.62-2.36,5.15,5.15,0,0,0-.31-1.94,2.11,2.11,0,0,0-2.13-1.45,2.15,2.15,0,0,0-2.17,1.42,5.16,5.16,0,0,0-.31,2,4.08,4.08,0,0,0,.63,2.34,2.18,2.18,0,0,0,1.93.93A2,2,0,0,0,232.84,127.52Z"/><path d="M247.65,129.15a6.06,6.06,0,0,1-8.46,0,6.83,6.83,0,0,1,0-8.26,6,6,0,0,1,8.46,0,6.79,6.79,0,0,1,0,8.26Zm-2.3-1.59a5.1,5.1,0,0,0,0-5.09,2.54,2.54,0,0,0-3.88,0,5.1,5.1,0,0,0,0,5.09,2.54,2.54,0,0,0,3.88,0Z"/><path d="M260,120.13a3.63,3.63,0,0,1,1.08,3v7.41h-2.95v-6.69a3,3,0,0,0-.23-1.34,1.62,1.62,0,0,0-1.6-.85,2,2,0,0,0-2,1.25,4.18,4.18,0,0,0-.28,1.67v6h-2.88v-11h2.78v1.61A4.8,4.8,0,0,1,255,119.9a3.59,3.59,0,0,1,2.24-.67A4.2,4.2,0,0,1,260,120.13Z"/><path d="M266,127a2,2,0,0,0,.39,1.09,2.72,2.72,0,0,0,2,.57,3.06,3.06,0,0,0,1.36-.25.85.85,0,0,0,.1-1.49,16.39,16.39,0,0,0-3-.87,6.29,6.29,0,0,1-2.64-1.16,2.53,2.53,0,0,1-.77-2,3.42,3.42,0,0,1,1.2-2.62,4.84,4.84,0,0,1,3.38-1.1,6.26,6.26,0,0,1,3.36.82,3.5,3.5,0,0,1,1.49,2.85h-2.87a1.67,1.67,0,0,0-.32-.88,2,2,0,0,0-1.62-.59,2.31,2.31,0,0,0-1.34.3.84.84,0,0,0-.4.68.75.75,0,0,0,.43.72,19,19,0,0,0,3,.8,5.45,5.45,0,0,1,2.58,1.22,2.79,2.79,0,0,1,.85,2.07,3.35,3.35,0,0,1-1.22,2.67,7.36,7.36,0,0,1-7.61-.06,3.55,3.55,0,0,1-1.24-2.79Z"/><path d="M33.17,138.17h5.92a5.56,5.56,0,0,1,4.69,2.17,8.07,8.07,0,0,1,1.48,5,10,10,0,0,1-.88,4.27A5.4,5.4,0,0,1,39.07,153h-5.9Zm5.53,13.11a5.4,5.4,0,0,0,1.64-.21,3.61,3.61,0,0,0,1.87-1.51,6.26,6.26,0,0,0,.84-2.31,8.72,8.72,0,0,0,.15-1.55,7.4,7.4,0,0,0-1.07-4.28,3.91,3.91,0,0,0-3.45-1.53H35.2v11.39Z"/><path d="M54.44,142.48a4.07,4.07,0,0,1,1.64,1.4,4.87,4.87,0,0,1,.72,1.91,12.31,12.31,0,0,1,.16,2.38H49.1a4.65,4.65,0,0,0,.77,2.65,2.55,2.55,0,0,0,2.23,1,2.91,2.91,0,0,0,2.26-.94,3.28,3.28,0,0,0,.66-1.27h1.79a3.81,3.81,0,0,1-.47,1.33,4.68,4.68,0,0,1-.89,1.19,4.18,4.18,0,0,1-2,1.09,6.08,6.08,0,0,1-1.47.16,4.55,4.55,0,0,1-3.41-1.46,5.76,5.76,0,0,1-1.39-4.12,6.26,6.26,0,0,1,1.4-4.23,4.65,4.65,0,0,1,3.68-1.63A4.84,4.84,0,0,1,54.44,142.48Zm.66,4.25a4.78,4.78,0,0,0-.52-1.89,2.61,2.61,0,0,0-2.47-1.31,2.73,2.73,0,0,0-2.08.9,3.44,3.44,0,0,0-.89,2.3Z"/><path d="M60.35,149.61a2.6,2.6,0,0,0,.46,1.39,2.94,2.94,0,0,0,2.43.88,3.65,3.65,0,0,0,1.81-.44,1.45,1.45,0,0,0,.79-1.36,1.16,1.16,0,0,0-.63-1.06,7,7,0,0,0-1.58-.51l-1.47-.37a7.2,7.2,0,0,1-2.07-.76,2.3,2.3,0,0,1-1.19-2A3.13,3.13,0,0,1,60,142.85a4.53,4.53,0,0,1,3-.95,4.2,4.2,0,0,1,3.57,1.44,3.08,3.08,0,0,1,.66,2H65.56a2.15,2.15,0,0,0-.45-1.12,2.91,2.91,0,0,0-2.22-.71,2.74,2.74,0,0,0-1.6.39,1.23,1.23,0,0,0-.54,1,1.27,1.27,0,0,0,.71,1.12,4.37,4.37,0,0,0,1.22.45l1.22.29a9.72,9.72,0,0,1,2.68.92,2.44,2.44,0,0,1,1.06,2.19,3.31,3.31,0,0,1-1.11,2.49,4.77,4.77,0,0,1-3.38,1,4.57,4.57,0,0,1-3.46-1.09,4.13,4.13,0,0,1-1.09-2.71Z"/><path d="M76.43,149.61a2.6,2.6,0,0,0,.46,1.39,2.94,2.94,0,0,0,2.43.88,3.69,3.69,0,0,0,1.82-.44,1.46,1.46,0,0,0,.78-1.36A1.17,1.17,0,0,0,81.3,149a7.38,7.38,0,0,0-1.58-.51l-1.47-.37a7,7,0,0,1-2.07-.76,2.28,2.28,0,0,1-1.19-2,3.1,3.1,0,0,1,1.12-2.49,4.51,4.51,0,0,1,3-.95,4.2,4.2,0,0,1,3.57,1.44,3.09,3.09,0,0,1,.67,2H81.64a2.07,2.07,0,0,0-.45-1.12,2.88,2.88,0,0,0-2.22-.71,2.7,2.7,0,0,0-1.59.39,1.21,1.21,0,0,0-.55,1,1.26,1.26,0,0,0,.72,1.12,4.28,4.28,0,0,0,1.21.45l1.22.29a9.59,9.59,0,0,1,2.68.92,2.41,2.41,0,0,1,1.06,2.19,3.31,3.31,0,0,1-1.11,2.49,4.77,4.77,0,0,1-3.38,1,4.57,4.57,0,0,1-3.46-1.09,4.13,4.13,0,0,1-1.09-2.71Z"/><path d="M87.5,142.19v7.18a3.09,3.09,0,0,0,.26,1.35,1.79,1.79,0,0,0,1.76,1A2.5,2.5,0,0,0,92,150a6.94,6.94,0,0,0,.36-2.49v-5.31h1.82V153H92.5l0-1.6a3.52,3.52,0,0,1-.86,1,3.73,3.73,0,0,1-2.48.85,3.18,3.18,0,0,1-3.09-1.54,4.76,4.76,0,0,1-.44-2.21v-7.35Z"/><path d="M104.33,142.76a4.28,4.28,0,0,1,1.38,3.06h-1.77a3.25,3.25,0,0,0-.74-1.66,2.31,2.31,0,0,0-1.84-.66,2.56,2.56,0,0,0-2.49,1.69,6.83,6.83,0,0,0-.48,2.72,5.08,5.08,0,0,0,.69,2.73,2.34,2.34,0,0,0,2.16,1.11,2.37,2.37,0,0,0,1.79-.69,3.81,3.81,0,0,0,.91-1.89h1.77a4.27,4.27,0,0,1-4.62,4.14,4.12,4.12,0,0,1-3.38-1.55,5.92,5.92,0,0,1-1.26-3.87,6.53,6.53,0,0,1,1.38-4.43,4.48,4.48,0,0,1,3.53-1.59A4.71,4.71,0,0,1,104.33,142.76Z"/><path d="M107.58,142.19h1.72v1.86a4.14,4.14,0,0,1,1-1.32,2.73,2.73,0,0,1,1.91-.79h.17l.42.05v1.91l-.3,0h-.3a2.6,2.6,0,0,0-2.11.89,3.06,3.06,0,0,0-.74,2V153h-1.81Z"/><path d="M121.09,142.48a4.14,4.14,0,0,1,1.64,1.4,4.87,4.87,0,0,1,.72,1.91,12.31,12.31,0,0,1,.16,2.38h-7.87a4.73,4.73,0,0,0,.78,2.65,2.55,2.55,0,0,0,2.23,1,2.89,2.89,0,0,0,2.25-.94,3.17,3.17,0,0,0,.67-1.27h1.79a4,4,0,0,1-.47,1.33,4.93,4.93,0,0,1-.89,1.19,4.21,4.21,0,0,1-2,1.09,6,6,0,0,1-1.47.16,4.53,4.53,0,0,1-3.4-1.46,5.76,5.76,0,0,1-1.39-4.12,6.21,6.21,0,0,1,1.4-4.23,4.64,4.64,0,0,1,3.67-1.63A4.85,4.85,0,0,1,121.09,142.48Zm.65,4.25a4.63,4.63,0,0,0-.51-1.89,2.62,2.62,0,0,0-2.47-1.31,2.73,2.73,0,0,0-2.08.9,3.44,3.44,0,0,0-.89,2.3Z"/><path d="M126,142.19h1.73v1.86a4.14,4.14,0,0,1,1-1.32,2.71,2.71,0,0,1,1.91-.79h.17l.41.05v1.91l-.3,0h-.29a2.59,2.59,0,0,0-2.11.89,3.06,3.06,0,0,0-.74,2V153H126Z"/><path d="M132.8,138.17h1.85v2.06H132.8Zm0,4.07h1.85V153H132.8Z"/><path d="M144.07,142.48a4.14,4.14,0,0,1,1.64,1.4,4.87,4.87,0,0,1,.72,1.91,12.31,12.31,0,0,1,.16,2.38h-7.87a4.65,4.65,0,0,0,.78,2.65,2.55,2.55,0,0,0,2.23,1,2.89,2.89,0,0,0,2.25-.94,3.17,3.17,0,0,0,.67-1.27h1.79a4,4,0,0,1-.47,1.33,4.93,4.93,0,0,1-.89,1.19,4.21,4.21,0,0,1-2,1.09,6,6,0,0,1-1.47.16,4.53,4.53,0,0,1-3.4-1.46,5.76,5.76,0,0,1-1.39-4.12,6.21,6.21,0,0,1,1.4-4.23,4.64,4.64,0,0,1,3.67-1.63A4.88,4.88,0,0,1,144.07,142.48Zm.65,4.25a4.63,4.63,0,0,0-.51-1.89,2.62,2.62,0,0,0-2.47-1.31,2.73,2.73,0,0,0-2.08.9,3.44,3.44,0,0,0-.9,2.3Z"/><path d="M150,149.61a2.6,2.6,0,0,0,.47,1.39,2.91,2.91,0,0,0,2.43.88,3.67,3.67,0,0,0,1.81-.44,1.46,1.46,0,0,0,.78-1.36,1.15,1.15,0,0,0-.62-1.06,7.38,7.38,0,0,0-1.58-.51l-1.47-.37a7,7,0,0,1-2.07-.76,2.28,2.28,0,0,1-1.19-2,3.1,3.1,0,0,1,1.12-2.49,4.52,4.52,0,0,1,3-.95,4.2,4.2,0,0,1,3.57,1.44,3.09,3.09,0,0,1,.67,2h-1.72a2.06,2.06,0,0,0-.44-1.12,2.92,2.92,0,0,0-2.23-.71,2.7,2.7,0,0,0-1.59.39,1.23,1.23,0,0,0-.54,1,1.25,1.25,0,0,0,.71,1.12,4.28,4.28,0,0,0,1.21.45l1.23.29a9.49,9.49,0,0,1,2.67.92,2.41,2.41,0,0,1,1.06,2.19,3.31,3.31,0,0,1-1.11,2.49,4.75,4.75,0,0,1-3.38,1,4.58,4.58,0,0,1-3.46-1.09,4.12,4.12,0,0,1-1.08-2.71Z"/><path d="M164.82,138.12h1.77v5.38a4,4,0,0,1,3.23-1.6,4.26,4.26,0,0,1,3.29,1.39,5.92,5.92,0,0,1,1.26,4.1,7,7,0,0,1-1.24,4.26,4.06,4.06,0,0,1-3.46,1.69,3.62,3.62,0,0,1-2.09-.59,5.38,5.38,0,0,1-1.08-1.13V153h-1.68Zm7,12.45a5.74,5.74,0,0,0,.74-3.09,5.07,5.07,0,0,0-.74-2.83,2.41,2.41,0,0,0-2.16-1.12,3,3,0,0,0-2.18.92,4.09,4.09,0,0,0-.94,3,6.82,6.82,0,0,0,.38,2.47,2.67,2.67,0,0,0,2.69,1.79A2.44,2.44,0,0,0,171.77,150.57Z"/><path d="M176.47,138.17h1.85v2.06h-1.85Zm0,4.07h1.85V153h-1.85Z"/><path d="M188.9,143.27a5.42,5.42,0,0,1,1.44,4.09,7,7,0,0,1-1.27,4.32,4.54,4.54,0,0,1-3.92,1.7,4.44,4.44,0,0,1-3.52-1.5,6,6,0,0,1-1.3-4,6.44,6.44,0,0,1,1.38-4.34,4.57,4.57,0,0,1,3.68-1.62A4.83,4.83,0,0,1,188.9,143.27Zm-1.13,7.18a6.75,6.75,0,0,0,.67-3A5.44,5.44,0,0,0,188,145a2.71,2.71,0,0,0-2.62-1.49,2.57,2.57,0,0,0-2.39,1.27,5.93,5.93,0,0,0-.75,3.06,5.16,5.16,0,0,0,.75,2.88,2.62,2.62,0,0,0,2.37,1.15A2.47,2.47,0,0,0,187.77,150.45Z"/><path d="M204.41,142.62a3.94,3.94,0,0,1,1,1.07v-1.5h1.72v15.12h-1.82v-5.55a3.19,3.19,0,0,1-1.26,1.15,4.14,4.14,0,0,1-2,.43,4.25,4.25,0,0,1-3.08-1.35,5.56,5.56,0,0,1-1.36-4.12,6.81,6.81,0,0,1,1.27-4.26,4,4,0,0,1,3.3-1.67A3.7,3.7,0,0,1,204.41,142.62Zm-4.54,7.47a2.49,2.49,0,0,0,2.49,1.69A2.61,2.61,0,0,0,205,150a6.83,6.83,0,0,0,.39-2.5,5.53,5.53,0,0,0-.43-2.34,2.62,2.62,0,0,0-2.59-1.61,2.53,2.53,0,0,0-2,1,4.9,4.9,0,0,0-.85,3.17A6.16,6.16,0,0,0,199.87,150.09Z"/><path d="M211.63,142.19v7.18a3.09,3.09,0,0,0,.26,1.35,1.78,1.78,0,0,0,1.76,1,2.48,2.48,0,0,0,2.51-1.7,6.7,6.7,0,0,0,.37-2.49v-5.31h1.81V153h-1.71l0-1.6a3.52,3.52,0,0,1-.86,1,3.73,3.73,0,0,1-2.48.85,3.18,3.18,0,0,1-3.09-1.54,4.63,4.63,0,0,1-.45-2.21v-7.35Z"/><path d="M221.31,138.17h1.85v2.06h-1.85Zm0,4.07h1.85V153h-1.85Z"/><path d="M232.5,138.88A2.79,2.79,0,0,1,235,138h.36l.41,0v1.65l-.41,0h-.24c-.56,0-.89.14-1,.43a8.29,8.29,0,0,0-.17,2.19h1.82v1.43H233.9V153h-1.79v-9.33H230.6v-1.43h1.51v-1.7A3.19,3.19,0,0,1,232.5,138.88Z"/><path d="M245.23,143.27a5.42,5.42,0,0,1,1.44,4.09,7.09,7.09,0,0,1-1.27,4.32,4.54,4.54,0,0,1-3.92,1.7,4.42,4.42,0,0,1-3.52-1.5,6,6,0,0,1-1.3-4,6.49,6.49,0,0,1,1.37-4.34,4.6,4.6,0,0,1,3.69-1.62A4.83,4.83,0,0,1,245.23,143.27Zm-1.13,7.18a6.75,6.75,0,0,0,.67-3,5.44,5.44,0,0,0-.48-2.46,2.71,2.71,0,0,0-2.62-1.49,2.56,2.56,0,0,0-2.39,1.27,5.93,5.93,0,0,0-.75,3.06,5.16,5.16,0,0,0,.75,2.88,2.62,2.62,0,0,0,2.37,1.15A2.48,2.48,0,0,0,244.1,150.45Z"/><path d="M248.9,142.19h1.72v1.53a4.81,4.81,0,0,1,1.63-1.36,4.28,4.28,0,0,1,1.91-.42,3.16,3.16,0,0,1,3.11,1.61,5.76,5.76,0,0,1,.44,2.51V153h-1.85v-6.82a3.62,3.62,0,0,0-.29-1.59,1.78,1.78,0,0,0-1.76-1,3.52,3.52,0,0,0-1.06.13,2.78,2.78,0,0,0-1.31.89,2.73,2.73,0,0,0-.59,1.11,7.36,7.36,0,0,0-.14,1.63V153H248.9Z"/><path d="M260.76,139.17h1.84v3h1.72v1.48H262.6v7.06a.77.77,0,0,0,.38.76,1.71,1.71,0,0,0,.71.11H264l.35,0V153a4.15,4.15,0,0,1-.65.13,5.54,5.54,0,0,1-.73,0,2,2,0,0,1-1.73-.65,2.91,2.91,0,0,1-.45-1.69v-7.16H259.3v-1.48h1.46Z"/><path d="M271.73,142.24h1.78v1.43a4.43,4.43,0,0,1,1.2-1.14,3.85,3.85,0,0,1,2.16-.61,4.08,4.08,0,0,1,3.13,1.41,5.76,5.76,0,0,1,1.29,4q0,3.52-1.86,5a4.2,4.2,0,0,1-2.74,1,3.76,3.76,0,0,1-2.05-.53,4.64,4.64,0,0,1-1.09-1v5.52h-1.82Zm6.84,8.47a5,5,0,0,0,.85-3.18,5.92,5.92,0,0,0-.38-2.22,2.74,2.74,0,0,0-5.18.1,7.43,7.43,0,0,0-.38,2.56,5.37,5.37,0,0,0,.38,2.13,2.75,2.75,0,0,0,4.71.61Z"/><path d="M290.06,142.48a4.07,4.07,0,0,1,1.64,1.4,4.87,4.87,0,0,1,.72,1.91,12.31,12.31,0,0,1,.16,2.38h-7.86a4.65,4.65,0,0,0,.77,2.65,2.56,2.56,0,0,0,2.23,1,2.9,2.9,0,0,0,2.26-.94,3.45,3.45,0,0,0,.67-1.27h1.78a3.62,3.62,0,0,1-.47,1.33,4.68,4.68,0,0,1-.89,1.19,4.14,4.14,0,0,1-2,1.09,6.08,6.08,0,0,1-1.47.16,4.55,4.55,0,0,1-3.41-1.46,5.76,5.76,0,0,1-1.39-4.12,6.26,6.26,0,0,1,1.4-4.23,4.66,4.66,0,0,1,3.68-1.63A4.84,4.84,0,0,1,290.06,142.48Zm.66,4.25a5,5,0,0,0-.51-1.89,2.63,2.63,0,0,0-2.48-1.31,2.73,2.73,0,0,0-2.08.9,3.44,3.44,0,0,0-.89,2.3Z"/><path d="M296.7,142.19v7.18a3.09,3.09,0,0,0,.26,1.35,1.78,1.78,0,0,0,1.76,1,2.5,2.5,0,0,0,2.52-1.7,6.94,6.94,0,0,0,.36-2.49v-5.31h1.82V153H301.7l0-1.6a3.52,3.52,0,0,1-.86,1,3.73,3.73,0,0,1-2.48.85,3.18,3.18,0,0,1-3.09-1.54,4.64,4.64,0,0,1-.44-2.21v-7.35Z"/><path d="M306.44,142.19h1.72v1.86a4.14,4.14,0,0,1,1-1.32,2.71,2.71,0,0,1,1.91-.79h.17l.42.05v1.91l-.3,0h-.3a2.6,2.6,0,0,0-2.11.89,3.06,3.06,0,0,0-.74,2V153h-1.81Z"/><path d="M324.81,146.46a1,1,0,0,0,.84-.53,1.6,1.6,0,0,0,.12-.7,1.48,1.48,0,0,0-.66-1.35,3.53,3.53,0,0,0-1.89-.42,2.38,2.38,0,0,0-2,.77,2.49,2.49,0,0,0-.44,1.27h-1.69a3.12,3.12,0,0,1,1.29-2.79,5.35,5.35,0,0,1,2.89-.79,6,6,0,0,1,3.1.73,2.49,2.49,0,0,1,1.18,2.26v6.23a.89.89,0,0,0,.11.46.58.58,0,0,0,.49.17l.28,0,.32,0v1.34a5,5,0,0,1-.65.15,4.75,4.75,0,0,1-.6,0,1.52,1.52,0,0,1-1.37-.66,2.74,2.74,0,0,1-.31-1,4.72,4.72,0,0,1-1.59,1.26,5.05,5.05,0,0,1-2.3.53,3.38,3.38,0,0,1-2.45-.91,3,3,0,0,1-1-2.28,2.93,2.93,0,0,1,.94-2.33,4.52,4.52,0,0,1,2.46-1ZM321,151.37a2.17,2.17,0,0,0,1.37.45,4.11,4.11,0,0,0,1.86-.45,2.5,2.5,0,0,0,1.51-2.4V147.5a3,3,0,0,1-.86.36,8,8,0,0,1-1,.2l-1.1.14a4.25,4.25,0,0,0-1.49.42,1.59,1.59,0,0,0-.84,1.51A1.51,1.51,0,0,0,321,151.37Z"/><path d="M332.33,142.19v7.18a3.09,3.09,0,0,0,.26,1.35,1.78,1.78,0,0,0,1.76,1,2.5,2.5,0,0,0,2.52-1.7,6.94,6.94,0,0,0,.36-2.49v-5.31h1.82V153h-1.72l0-1.6a3.52,3.52,0,0,1-.86,1,3.73,3.73,0,0,1-2.48.85,3.18,3.18,0,0,1-3.09-1.54,4.64,4.64,0,0,1-.44-2.21v-7.35Z"/><path d="M341,142.19h2.35l2.48,3.8,2.52-3.8,2.21.05-3.65,5.22,3.81,5.54h-2.32l-2.69-4.06L343.1,153h-2.31l3.81-5.54Z"/><path d="M365.24,142.76a4.21,4.21,0,0,1,1.38,3.06h-1.77a3.24,3.24,0,0,0-.73-1.66,2.34,2.34,0,0,0-1.85-.66,2.53,2.53,0,0,0-2.48,1.69,6.65,6.65,0,0,0-.49,2.72,5.08,5.08,0,0,0,.69,2.73,2.66,2.66,0,0,0,3.95.42,3.73,3.73,0,0,0,.91-1.89h1.77a4.26,4.26,0,0,1-4.61,4.14,4.14,4.14,0,0,1-3.39-1.55,5.92,5.92,0,0,1-1.26-3.87,6.48,6.48,0,0,1,1.39-4.43,4.45,4.45,0,0,1,3.52-1.59A4.71,4.71,0,0,1,365.24,142.76Z"/><path d="M374.23,146.46a1,1,0,0,0,.84-.53,1.6,1.6,0,0,0,.12-.7,1.48,1.48,0,0,0-.66-1.35,3.53,3.53,0,0,0-1.89-.42,2.39,2.39,0,0,0-2,.77,2.59,2.59,0,0,0-.44,1.27H368.5a3.12,3.12,0,0,1,1.29-2.79,5.35,5.35,0,0,1,2.89-.79,5.93,5.93,0,0,1,3.1.73,2.47,2.47,0,0,1,1.18,2.26v6.23a.81.81,0,0,0,.12.46c.07.11.24.17.49.17l.27,0,.32,0v1.34a5,5,0,0,1-.65.15,4.54,4.54,0,0,1-.6,0,1.49,1.49,0,0,1-1.36-.66,2.56,2.56,0,0,1-.32-1,4.72,4.72,0,0,1-1.59,1.26,5,5,0,0,1-2.29.53,3.38,3.38,0,0,1-2.46-.91,3,3,0,0,1-1-2.28,3,3,0,0,1,.94-2.33,4.52,4.52,0,0,1,2.47-1Zm-3.82,4.91a2.14,2.14,0,0,0,1.36.45,4.11,4.11,0,0,0,1.86-.45,2.48,2.48,0,0,0,1.51-2.4V147.5a2.93,2.93,0,0,1-.85.36,8.11,8.11,0,0,1-1,.2l-1.1.14a4.32,4.32,0,0,0-1.49.42,1.59,1.59,0,0,0-.84,1.51A1.5,1.5,0,0,0,370.41,151.37Z"/><path d="M380,142.19h1.72v1.86a4.3,4.3,0,0,1,1-1.32,2.73,2.73,0,0,1,1.91-.79h.17l.42.05v1.91l-.3,0h-.3a2.6,2.6,0,0,0-2.11.89,3.05,3.05,0,0,0-.73,2V153H380Z"/><path d="M386.82,138.17h1.85v2.06h-1.85Zm0,4.07h1.85V153h-1.85Z"/><path d="M398.1,142.48a4.11,4.11,0,0,1,1.63,1.4,5,5,0,0,1,.73,1.91,13.18,13.18,0,0,1,.16,2.38h-7.87a4.65,4.65,0,0,0,.77,2.65,2.57,2.57,0,0,0,2.24,1,2.89,2.89,0,0,0,2.25-.94,3.3,3.3,0,0,0,.67-1.27h1.78a3.62,3.62,0,0,1-.47,1.33,4.68,4.68,0,0,1-.89,1.19,4.14,4.14,0,0,1-2,1.09,6,6,0,0,1-1.47.16,4.53,4.53,0,0,1-3.4-1.46,5.76,5.76,0,0,1-1.4-4.12,6.21,6.21,0,0,1,1.41-4.23,4.63,4.63,0,0,1,3.67-1.63A4.91,4.91,0,0,1,398.1,142.48Zm.65,4.25a5,5,0,0,0-.51-1.89,2.63,2.63,0,0,0-2.48-1.31,2.74,2.74,0,0,0-2.08.9,3.44,3.44,0,0,0-.89,2.3Z"/><path d="M404,149.61a2.6,2.6,0,0,0,.46,1.39,2.94,2.94,0,0,0,2.43.88,3.71,3.71,0,0,0,1.82-.44,1.46,1.46,0,0,0,.78-1.36,1.16,1.16,0,0,0-.63-1.06,7,7,0,0,0-1.58-.51l-1.46-.37a7.16,7.16,0,0,1-2.08-.76,2.3,2.3,0,0,1-1.19-2,3.13,3.13,0,0,1,1.12-2.49,4.55,4.55,0,0,1,3-.95,4.2,4.2,0,0,1,3.57,1.44,3,3,0,0,1,.66,2h-1.71a2.07,2.07,0,0,0-.45-1.12,2.88,2.88,0,0,0-2.22-.71,2.76,2.76,0,0,0-1.6.39,1.23,1.23,0,0,0-.54,1,1.26,1.26,0,0,0,.72,1.12,4.17,4.17,0,0,0,1.21.45l1.22.29a9.72,9.72,0,0,1,2.68.92,2.44,2.44,0,0,1,1.06,2.19,3.31,3.31,0,0,1-1.11,2.49,4.77,4.77,0,0,1-3.38,1,4.57,4.57,0,0,1-3.46-1.09,4.13,4.13,0,0,1-1.09-2.71Z"/><path class="cls-3" d="M440.88,13.1h46.49V59.59H440.88Z"/><path class="cls-4" d="M466.93,40.79H465.4l-.54-.52a12.72,12.72,0,1,0-1.36,1.35l.52.54v1.53l8.24,8.24A2,2,0,1,0,475.14,49Zm-11.62,0A8.72,8.72,0,1,1,464,32.07,8.71,8.71,0,0,1,455.31,40.79Z"/><path class="cls-3" d="M478.88,157.5h-39v-39h39Z"/><path class="cls-4" d="M451.7,149.28a1.89,1.89,0,0,0,2.66,0l12.51-12.51a1.49,1.49,0,0,0,0-2.12l-12.51-12.51a1.88,1.88,0,1,0-2.66,2.66l10.89,10.91-10.91,10.92A1.88,1.88,0,0,0,451.7,149.28Z"/><rect class="cls-5" x="31.5" y="189" width="292.5" height="27"/><rect class="cls-6" x="31.5" y="220.5" width="378" height="27"/><rect class="cls-5" x="31.5" y="274.5" width="292.5" height="27"/><rect class="cls-6" x="31.5" y="306" width="378" height="27"/></g></g></svg>