<svg xmlns="http://www.w3.org/2000/svg" viewBox="0 0 360 441">
    <defs>
        <style>
            .cls-1 {
                fill: #1b1464;
            }

            .spotlightColor {
                fill: #EEE82C;
            }

            .cls-2,
            .cls-6,
            .cls-7 {
                fill: #2958E6;
            }

            .cls-3 {
                fill: #f7b2b7;
            }

            .cls-4 {
                fill: #f3a712;
            }

            .cls-5 {
                fill: #473144;
            }

            .cls-6 {
                opacity: 0.25;
            }

            .cls-7 {
                opacity: 0.5;
            }
        </style>
    </defs>
    <g id="Layer_2" data-name="Layer 2">
        <g id="Layer_2-2" data-name="Layer 2">
            <rect class="cls-1" x="126" y="265.5" width="108" height="108" rx="16.16" />
            <g id="Group_2" data-name="Group 2">
                <path id="Path_1" data-name="Path 1" class="cls-2"
                    d="M198.54,326.12l-12.25,12.25s-18.38-6.12-30.63-18.38-13.78-35.22-12.25-36.75,23-1.53,36.75,12.25A76.9,76.9,0,0,1,198.54,326.12Z" />
                <rect id="Rectangle_3" data-name="Rectangle 3" class="cls-3" x="186.68" y="331.93" width="12.99"
                    height="2.17" transform="translate(-178.89 234.14) rotate(-45)" />
                <path id="Path_3" data-name="Path 3" class="cls-4"
                    d="M210.79,335.31c-9.18-9.19-13.78-1.53-15.31-3.06l-3.06,3.06c1.53,1.53-6.13,6.12,3.06,15.31s23,10.72,24.5,9.19S220,344.5,210.79,335.31Z" />
                <path id="Path_8" data-name="Path 8" class="cls-3"
                    d="M161.79,301.62a8.66,8.66,0,1,1,0,12.25,8.65,8.65,0,0,1,0-12.25Z" />
                <circle id="Ellipse_4" data-name="Ellipse 4" class="cls-5" cx="167.91" cy="307.74" r="6.5" />
                <g id="Layer_2-3" data-name="Layer 2">
                    <path id="Path_5" data-name="Path 5" class="cls-3"
                        d="M164.85,323.06,171,341.43l7.65-1.53,4.6-4.59Z" />
                    <path id="Path_6" data-name="Path 6" class="cls-3"
                        d="M183.23,304.68l18.38,6.12-1.54,7.66-4.59,4.6Z" />
                </g>
            </g>
            <path class="spotlightColor"
                d="M0,12.92,30.9,427.26a11.84,11.84,0,0,0,6.62,9.86c19.57,9.21,77.14-1.87,140.41-28.33s111.6-59.67,118.77-80.07a11.8,11.8,0,0,0-2.36-11.63L21,4.14C13.46-4.55-.82,1.42,0,12.92Z" />
            <path class="spotlightColor"
                d="M338.91,4.59,67.75,319.4A11.81,11.81,0,0,0,65.46,331c7.32,20.36,55.87,53.23,119.32,79.26s121.1,36.72,140.6,27.37a11.82,11.82,0,0,0,6.55-9.9L360,13.23C360.75,1.72,346.43-4.15,338.91,4.59Z" />
        </g>
    </g>
</svg>