<svg xmlns="http://www.w3.org/2000/svg" viewBox="0 0 1290.84 621"><defs><style>.cls-1{fill:#f9cb40;}.cls-2{fill:#519e8a;}.cls-3{fill:#c0a58d;}.cls-4{fill:#d1b79f;}.cls-5{fill:#db3069;}.cls-6{fill:#edf2f4;}.cls-7{fill:#e1c5b6;}.cls-8{fill:#b5917c;}.cls-9{fill:#543e36;}</style></defs><g id="Layer_2" data-name="Layer 2"><g id="Layer_2-2" data-name="Layer 2"><path class="cls-1" d="M804.84,310.5c86.57-48.7,141.23-126.59,78-193.5A372.43,372.43,0,0,0,611.34,0c-206.28,0-373.5,167.22-373.5,373.5S414.06,360,620.34,360,732.84,351,804.84,310.5Z"/><path class="cls-2" d="M219.31,484.43C192.58,484.26,37.4,487.34,2,580.06A30.11,30.11,0,0,0,30.07,621H930.84c253.35,0,360-99,360-220.5s-69.73-198.83-176.61-198.83c-86.94,0-231.16.55-282,.75a30.07,30.07,0,0,0-26.51,16.11C785.23,257.7,729.16,355.91,677.52,367,616.7,380,268.59,472.44,227.25,483.42A30.44,30.44,0,0,1,219.31,484.43Z"/></g><g id="Layer_1-2" data-name="Layer 1"><path d="M223.23,484.49S287.56,593,375.87,562.26,487.22,604.5,530.74,598.1s55-66,102.39-93.15S761.26,410.12,822,397.88s116.45,0,116.45,0l-39.09-73.15L724,344.69,258.13,452.76Z"/><path class="cls-3" d="M657.4,347.07c-40.56-45.85-224.69-29.22-308.53,37.56,4.83-9.65,26.28-19.24,28.63-31.76l31.17-166c2.94-15.66,23.7-57.15,1.78-61.26s-50.5,10-75.55,5.26-70.28,29.27-65.4,36.4c10.24,15,118.08-6.21,114.12,14.89-4.12,21.92-138.53,234.19-95,264.21S698,392.93,657.4,347.07Z"/><path class="cls-4" d="M627.18,410.86s27.68-17.55,110.16-23.16c46.39-3.15,130.76-4.2,176.23-25.53,23.71-11.12-21.35-23.89-29.73-49.24-25.06-75.8-53.14-57.13-53.14-57.13S835.1,325,720.48,325s-140.85-21-140.85-21l33.21,76.82Z"/><path class="cls-3" d="M579.63,304s26.24,21,140.85,21S830.7,255.8,830.7,255.8s2.09-30.51-18.68-30.51c-59.56,0-37.87,90.92-116.69,94.4-85.69,3.78-111.79-12.13-117.73-18.06C576.36,303.05,579.63,304,579.63,304Z"/><path class="cls-4" d="M535.67,347.43c-44.71,0-77.74,17.48-83.15,20.52-8.42,5.81-16.39,10.22-25.28,11-52.59,4.37-115.19,49.39-119.19,46.38-9.86-7.4,108.56-180.55,108.56-180.55l-93.1,72.69S190,459.55,223.23,484.49c29.7,22.29,303-17.53,360.76-49C584,435.29,584.58,347.43,535.67,347.43Z"/><path class="cls-5" d="M626.12,333.61c-17-21.27-36.76-35.15-80-35.15-76.95,0-94.44,70-94.44,70l.8-.46c19.58-13.49,41.57-34.52,83.15-34.52,59.46,0,59,59.47,59,91.33,0,3.38-3.83,7-10.68,10.74h0s32.73-14.19,43.19-24.65C645.51,392.53,638.87,349.56,626.12,333.61Z"/><path class="cls-6" d="M594.67,424.76c0-31.86.46-91.33-59-91.33-41.58,0-63.57,21-83.15,34.52,5.41-3,38.44-20.52,83.15-20.52,48.91,0,48.32,87.86,48.32,88.07C590.84,431.76,594.67,428.14,594.67,424.76Z"/><path class="cls-7" d="M345.18,228.51c-14.37,33.57-85.86,99.91-72,110.32s33.58,8.55,56,5.36,66.67-66.62,85.88-92.21S359.55,194.94,345.18,228.51Z"/><path class="cls-7" d="M907.78,19.21S929.41,27.92,930.29,55s23.45,64.54,17.65,71.31-8.48,15.06-10.5,26.66-3.5,36.19-23.64,36.19c-19.53,0-16.13,13.65-12.47,57.11,1.08,12.8-97.44-62.2-97.44-62.2Z"/><path class="cls-5" d="M846.13,217.36s18.13,44.57,17.27,61.79c-.9,18-24.67,48-1.39,71.31s80.52,20.38,80.52-15.91-87-122.32-87-122.32Z"/><path class="cls-3" d="M814.6,291.89a58.06,58.06,0,0,0,6.44-9.15c0,.78,0,1.58,0,2.37,0,22.65,26.92,54.37,56.67,78.68C841.28,338.26,820.26,307.36,814.6,291.89Z"/><path class="cls-4" d="M933.73,347.48s-47-108.22-81.33-108.22c-17.15,0-31.4,19.26-31.4,45.85,0,35.71,67,94,106.35,110.21S933.73,347.48,933.73,347.48Z"/><path class="cls-8" d="M410.71,387.5c-30.42,4.86-98.84,40.66-102.66,37.79,4,3,66.6-42,119.19-46.38,8.89-.74,16.86-5.15,25.28-11C443.8,373.43,441.14,382.64,410.71,387.5Z"/><path class="cls-9" d="M907.78,19.21c-56.21,0-199.85,209.67-160.71,248.81s192,15.5,172.59-58S964,19.21,907.78,19.21Z"/></g></g></svg>